%FSLAX45Y45*%
G04 Gerber Fmt 4.5, Leading zero omitted, Abs format (unit mm)*
G04 Created by KiCad (PCBNEW (5.0.0-rc2-dev-444-g2974a2c10)) date 08/03/19 11:43:25*
%MOMM*%
%LPD*%
G01*
G04 APERTURE LIST*
%ADD10C,0.100000*%
%ADD11C,0.200000*%
%ADD12C,0.300000*%
G04 APERTURE END LIST*
D10*
X12446000Y-7048500D02*
X12446000Y-8191500D01*
X10858500Y-6858000D02*
X12255500Y-6858000D01*
X10668000Y-8191500D02*
X10668000Y-7048500D01*
X12255500Y-8382000D02*
X10858500Y-8382000D01*
X10668000Y-7048500D02*
G75*
G02X10858500Y-6858000I190500J0D01*
G01*
X10858500Y-8382000D02*
G75*
G02X10668000Y-8191500I0J190500D01*
G01*
X12446000Y-8191500D02*
G75*
G02X12255500Y-8382000I-190500J0D01*
G01*
X12255500Y-6858000D02*
G75*
G02X12446000Y-7048500I0J-190500D01*
G01*
D11*
X10968990Y-7654290D02*
X11002010Y-7687310D01*
X11002010Y-7654290D02*
X10968990Y-7687310D01*
X11121390Y-7120890D02*
X11154410Y-7153910D01*
X11154410Y-7120890D02*
X11121390Y-7153910D01*
X11286490Y-7590790D02*
X11319510Y-7623810D01*
X11319510Y-7590790D02*
X11286490Y-7623810D01*
X11654790Y-7158990D02*
X11687810Y-7192010D01*
X11687810Y-7158990D02*
X11654790Y-7192010D01*
X11794490Y-7590790D02*
X11827510Y-7623810D01*
X11827510Y-7590790D02*
X11794490Y-7623810D01*
X11959590Y-7120890D02*
X11992610Y-7153910D01*
X11992610Y-7120890D02*
X11959590Y-7153910D01*
X12264390Y-8200390D02*
X12297410Y-8233410D01*
X12297410Y-8200390D02*
X12264390Y-8233410D01*
X11099000Y-8255000D02*
G75*
G03X11099000Y-8255000I-50000J0D01*
G01*
X11353000Y-8255000D02*
G75*
G03X11353000Y-8255000I-50000J0D01*
G01*
X11607000Y-8255000D02*
G75*
G03X11607000Y-8255000I-50000J0D01*
G01*
X11861000Y-8255000D02*
G75*
G03X11861000Y-8255000I-50000J0D01*
G01*
X12115000Y-8255000D02*
G75*
G03X12115000Y-8255000I-50000J0D01*
G01*
X11353000Y-6985000D02*
G75*
G03X11353000Y-6985000I-50000J0D01*
G01*
X11607000Y-6985000D02*
G75*
G03X11607000Y-6985000I-50000J0D01*
G01*
X11861000Y-6985000D02*
G75*
G03X11861000Y-6985000I-50000J0D01*
G01*
X12192000Y-6987000D02*
X12192000Y-7237000D01*
X12067000Y-7112000D02*
X12317000Y-7112000D01*
X10922000Y-6987000D02*
X10922000Y-7237000D01*
X10797000Y-7112000D02*
X11047000Y-7112000D01*
D12*
X10949428Y-8852714D02*
X10949428Y-8552714D01*
X11020857Y-8552714D01*
X11063714Y-8567000D01*
X11092286Y-8595572D01*
X11106571Y-8624143D01*
X11120857Y-8681286D01*
X11120857Y-8724143D01*
X11106571Y-8781286D01*
X11092286Y-8809857D01*
X11063714Y-8838429D01*
X11020857Y-8852714D01*
X10949428Y-8852714D01*
X11249428Y-8852714D02*
X11249428Y-8652714D01*
X11249428Y-8709857D02*
X11263714Y-8681286D01*
X11278000Y-8667000D01*
X11306571Y-8652714D01*
X11335143Y-8652714D01*
X11435143Y-8852714D02*
X11435143Y-8652714D01*
X11435143Y-8552714D02*
X11420857Y-8567000D01*
X11435143Y-8581286D01*
X11449428Y-8567000D01*
X11435143Y-8552714D01*
X11435143Y-8581286D01*
X11620857Y-8852714D02*
X11592286Y-8838429D01*
X11578000Y-8809857D01*
X11578000Y-8552714D01*
X11778000Y-8852714D02*
X11749428Y-8838429D01*
X11735143Y-8809857D01*
X11735143Y-8552714D01*
X12120857Y-8852714D02*
X12120857Y-8552714D01*
X12220857Y-8767000D01*
X12320857Y-8552714D01*
X12320857Y-8852714D01*
X12592286Y-8852714D02*
X12592286Y-8695572D01*
X12578000Y-8667000D01*
X12549428Y-8652714D01*
X12492286Y-8652714D01*
X12463714Y-8667000D01*
X12592286Y-8838429D02*
X12563714Y-8852714D01*
X12492286Y-8852714D01*
X12463714Y-8838429D01*
X12449428Y-8809857D01*
X12449428Y-8781286D01*
X12463714Y-8752714D01*
X12492286Y-8738429D01*
X12563714Y-8738429D01*
X12592286Y-8724143D01*
X12735143Y-8652714D02*
X12735143Y-8952714D01*
X12735143Y-8667000D02*
X12763714Y-8652714D01*
X12820857Y-8652714D01*
X12849428Y-8667000D01*
X12863714Y-8681286D01*
X12878000Y-8709857D01*
X12878000Y-8795572D01*
X12863714Y-8824143D01*
X12849428Y-8838429D01*
X12820857Y-8852714D01*
X12763714Y-8852714D01*
X12735143Y-8838429D01*
X13006571Y-8824143D02*
X13020857Y-8838429D01*
X13006571Y-8852714D01*
X12992286Y-8838429D01*
X13006571Y-8824143D01*
X13006571Y-8852714D01*
X13006571Y-8667000D02*
X13020857Y-8681286D01*
X13006571Y-8695572D01*
X12992286Y-8681286D01*
X13006571Y-8667000D01*
X13006571Y-8695572D01*
X10629980Y-9330490D02*
X10663000Y-9363510D01*
X10663000Y-9330490D02*
X10629980Y-9363510D01*
X11006571Y-9182714D02*
X11035143Y-9182714D01*
X11063714Y-9197000D01*
X11078000Y-9211286D01*
X11092286Y-9239857D01*
X11106571Y-9297000D01*
X11106571Y-9368429D01*
X11092286Y-9425572D01*
X11078000Y-9454143D01*
X11063714Y-9468429D01*
X11035143Y-9482714D01*
X11006571Y-9482714D01*
X10978000Y-9468429D01*
X10963714Y-9454143D01*
X10949428Y-9425572D01*
X10935143Y-9368429D01*
X10935143Y-9297000D01*
X10949428Y-9239857D01*
X10963714Y-9211286D01*
X10978000Y-9197000D01*
X11006571Y-9182714D01*
X11235143Y-9454143D02*
X11249428Y-9468429D01*
X11235143Y-9482714D01*
X11220857Y-9468429D01*
X11235143Y-9454143D01*
X11235143Y-9482714D01*
X11349428Y-9182714D02*
X11535143Y-9182714D01*
X11435143Y-9297000D01*
X11478000Y-9297000D01*
X11506571Y-9311286D01*
X11520857Y-9325572D01*
X11535143Y-9354143D01*
X11535143Y-9425572D01*
X11520857Y-9454143D01*
X11506571Y-9468429D01*
X11478000Y-9482714D01*
X11392286Y-9482714D01*
X11363714Y-9468429D01*
X11349428Y-9454143D01*
X11635143Y-9182714D02*
X11820857Y-9182714D01*
X11720857Y-9297000D01*
X11763714Y-9297000D01*
X11792286Y-9311286D01*
X11806571Y-9325572D01*
X11820857Y-9354143D01*
X11820857Y-9425572D01*
X11806571Y-9454143D01*
X11792286Y-9468429D01*
X11763714Y-9482714D01*
X11678000Y-9482714D01*
X11649428Y-9468429D01*
X11635143Y-9454143D01*
X11949428Y-9482714D02*
X11949428Y-9282714D01*
X11949428Y-9311286D02*
X11963714Y-9297000D01*
X11992286Y-9282714D01*
X12035143Y-9282714D01*
X12063714Y-9297000D01*
X12078000Y-9325572D01*
X12078000Y-9482714D01*
X12078000Y-9325572D02*
X12092286Y-9297000D01*
X12120857Y-9282714D01*
X12163714Y-9282714D01*
X12192286Y-9297000D01*
X12206571Y-9325572D01*
X12206571Y-9482714D01*
X12349428Y-9482714D02*
X12349428Y-9282714D01*
X12349428Y-9311286D02*
X12363714Y-9297000D01*
X12392286Y-9282714D01*
X12435143Y-9282714D01*
X12463714Y-9297000D01*
X12478000Y-9325572D01*
X12478000Y-9482714D01*
X12478000Y-9325572D02*
X12492286Y-9297000D01*
X12520857Y-9282714D01*
X12563714Y-9282714D01*
X12592286Y-9297000D01*
X12606571Y-9325572D01*
X12606571Y-9482714D01*
X13192286Y-9168429D02*
X12935143Y-9554143D01*
X13578000Y-9182714D02*
X13606571Y-9182714D01*
X13635143Y-9197000D01*
X13649428Y-9211286D01*
X13663714Y-9239857D01*
X13678000Y-9297000D01*
X13678000Y-9368429D01*
X13663714Y-9425572D01*
X13649428Y-9454143D01*
X13635143Y-9468429D01*
X13606571Y-9482714D01*
X13578000Y-9482714D01*
X13549428Y-9468429D01*
X13535143Y-9454143D01*
X13520857Y-9425572D01*
X13506571Y-9368429D01*
X13506571Y-9297000D01*
X13520857Y-9239857D01*
X13535143Y-9211286D01*
X13549428Y-9197000D01*
X13578000Y-9182714D01*
X13806571Y-9454143D02*
X13820857Y-9468429D01*
X13806571Y-9482714D01*
X13792286Y-9468429D01*
X13806571Y-9454143D01*
X13806571Y-9482714D01*
X14006571Y-9182714D02*
X14035143Y-9182714D01*
X14063714Y-9197000D01*
X14078000Y-9211286D01*
X14092286Y-9239857D01*
X14106571Y-9297000D01*
X14106571Y-9368429D01*
X14092286Y-9425572D01*
X14078000Y-9454143D01*
X14063714Y-9468429D01*
X14035143Y-9482714D01*
X14006571Y-9482714D01*
X13978000Y-9468429D01*
X13963714Y-9454143D01*
X13949428Y-9425572D01*
X13935143Y-9368429D01*
X13935143Y-9297000D01*
X13949428Y-9239857D01*
X13963714Y-9211286D01*
X13978000Y-9197000D01*
X14006571Y-9182714D01*
X14392286Y-9482714D02*
X14220857Y-9482714D01*
X14306571Y-9482714D02*
X14306571Y-9182714D01*
X14278000Y-9225572D01*
X14249428Y-9254143D01*
X14220857Y-9268429D01*
X14492286Y-9182714D02*
X14678000Y-9182714D01*
X14578000Y-9297000D01*
X14620857Y-9297000D01*
X14649428Y-9311286D01*
X14663714Y-9325572D01*
X14678000Y-9354143D01*
X14678000Y-9425572D01*
X14663714Y-9454143D01*
X14649428Y-9468429D01*
X14620857Y-9482714D01*
X14535143Y-9482714D01*
X14506571Y-9468429D01*
X14492286Y-9454143D01*
X14792286Y-9182714D02*
X14792286Y-9239857D01*
X14906571Y-9182714D02*
X14906571Y-9239857D01*
X15349428Y-9597000D02*
X15335143Y-9582714D01*
X15306571Y-9539857D01*
X15292286Y-9511286D01*
X15278000Y-9468429D01*
X15263714Y-9397000D01*
X15263714Y-9339857D01*
X15278000Y-9268429D01*
X15292286Y-9225572D01*
X15306571Y-9197000D01*
X15335143Y-9154143D01*
X15349428Y-9139857D01*
X15435143Y-9182714D02*
X15635143Y-9182714D01*
X15506571Y-9482714D01*
X15978000Y-9482714D02*
X15978000Y-9182714D01*
X16106571Y-9482714D02*
X16106571Y-9325572D01*
X16092286Y-9297000D01*
X16063714Y-9282714D01*
X16020857Y-9282714D01*
X15992286Y-9297000D01*
X15978000Y-9311286D01*
X16292286Y-9482714D02*
X16263714Y-9468429D01*
X16249428Y-9454143D01*
X16235143Y-9425572D01*
X16235143Y-9339857D01*
X16249428Y-9311286D01*
X16263714Y-9297000D01*
X16292286Y-9282714D01*
X16335143Y-9282714D01*
X16363714Y-9297000D01*
X16378000Y-9311286D01*
X16392286Y-9339857D01*
X16392286Y-9425572D01*
X16378000Y-9454143D01*
X16363714Y-9468429D01*
X16335143Y-9482714D01*
X16292286Y-9482714D01*
X16563714Y-9482714D02*
X16535143Y-9468429D01*
X16520857Y-9439857D01*
X16520857Y-9182714D01*
X16792286Y-9468429D02*
X16763714Y-9482714D01*
X16706571Y-9482714D01*
X16678000Y-9468429D01*
X16663714Y-9439857D01*
X16663714Y-9325572D01*
X16678000Y-9297000D01*
X16706571Y-9282714D01*
X16763714Y-9282714D01*
X16792286Y-9297000D01*
X16806571Y-9325572D01*
X16806571Y-9354143D01*
X16663714Y-9382714D01*
X16920857Y-9468429D02*
X16949428Y-9482714D01*
X17006571Y-9482714D01*
X17035143Y-9468429D01*
X17049428Y-9439857D01*
X17049428Y-9425572D01*
X17035143Y-9397000D01*
X17006571Y-9382714D01*
X16963714Y-9382714D01*
X16935143Y-9368429D01*
X16920857Y-9339857D01*
X16920857Y-9325572D01*
X16935143Y-9297000D01*
X16963714Y-9282714D01*
X17006571Y-9282714D01*
X17035143Y-9297000D01*
X17149428Y-9597000D02*
X17163714Y-9582714D01*
X17192286Y-9539857D01*
X17206571Y-9511286D01*
X17220857Y-9468429D01*
X17235143Y-9397000D01*
X17235143Y-9339857D01*
X17220857Y-9268429D01*
X17206571Y-9225572D01*
X17192286Y-9197000D01*
X17163714Y-9154143D01*
X17149428Y-9139857D01*
X10663000Y-9743000D02*
G75*
G03X10663000Y-9743000I-50000J0D01*
G01*
X11106571Y-9878714D02*
X10935143Y-9878714D01*
X11020857Y-9878714D02*
X11020857Y-9578714D01*
X10992286Y-9621572D01*
X10963714Y-9650143D01*
X10935143Y-9664429D01*
X11235143Y-9850143D02*
X11249428Y-9864429D01*
X11235143Y-9878714D01*
X11220857Y-9864429D01*
X11235143Y-9850143D01*
X11235143Y-9878714D01*
X11435143Y-9578714D02*
X11463714Y-9578714D01*
X11492286Y-9593000D01*
X11506571Y-9607286D01*
X11520857Y-9635857D01*
X11535143Y-9693000D01*
X11535143Y-9764429D01*
X11520857Y-9821572D01*
X11506571Y-9850143D01*
X11492286Y-9864429D01*
X11463714Y-9878714D01*
X11435143Y-9878714D01*
X11406571Y-9864429D01*
X11392286Y-9850143D01*
X11378000Y-9821572D01*
X11363714Y-9764429D01*
X11363714Y-9693000D01*
X11378000Y-9635857D01*
X11392286Y-9607286D01*
X11406571Y-9593000D01*
X11435143Y-9578714D01*
X11720857Y-9578714D02*
X11749428Y-9578714D01*
X11778000Y-9593000D01*
X11792286Y-9607286D01*
X11806571Y-9635857D01*
X11820857Y-9693000D01*
X11820857Y-9764429D01*
X11806571Y-9821572D01*
X11792286Y-9850143D01*
X11778000Y-9864429D01*
X11749428Y-9878714D01*
X11720857Y-9878714D01*
X11692286Y-9864429D01*
X11678000Y-9850143D01*
X11663714Y-9821572D01*
X11649428Y-9764429D01*
X11649428Y-9693000D01*
X11663714Y-9635857D01*
X11678000Y-9607286D01*
X11692286Y-9593000D01*
X11720857Y-9578714D01*
X11949428Y-9878714D02*
X11949428Y-9678714D01*
X11949428Y-9707286D02*
X11963714Y-9693000D01*
X11992286Y-9678714D01*
X12035143Y-9678714D01*
X12063714Y-9693000D01*
X12078000Y-9721572D01*
X12078000Y-9878714D01*
X12078000Y-9721572D02*
X12092286Y-9693000D01*
X12120857Y-9678714D01*
X12163714Y-9678714D01*
X12192286Y-9693000D01*
X12206571Y-9721572D01*
X12206571Y-9878714D01*
X12349428Y-9878714D02*
X12349428Y-9678714D01*
X12349428Y-9707286D02*
X12363714Y-9693000D01*
X12392286Y-9678714D01*
X12435143Y-9678714D01*
X12463714Y-9693000D01*
X12478000Y-9721572D01*
X12478000Y-9878714D01*
X12478000Y-9721572D02*
X12492286Y-9693000D01*
X12520857Y-9678714D01*
X12563714Y-9678714D01*
X12592286Y-9693000D01*
X12606571Y-9721572D01*
X12606571Y-9878714D01*
X13192286Y-9564429D02*
X12935143Y-9950143D01*
X13578000Y-9578714D02*
X13606571Y-9578714D01*
X13635143Y-9593000D01*
X13649428Y-9607286D01*
X13663714Y-9635857D01*
X13678000Y-9693000D01*
X13678000Y-9764429D01*
X13663714Y-9821572D01*
X13649428Y-9850143D01*
X13635143Y-9864429D01*
X13606571Y-9878714D01*
X13578000Y-9878714D01*
X13549428Y-9864429D01*
X13535143Y-9850143D01*
X13520857Y-9821572D01*
X13506571Y-9764429D01*
X13506571Y-9693000D01*
X13520857Y-9635857D01*
X13535143Y-9607286D01*
X13549428Y-9593000D01*
X13578000Y-9578714D01*
X13806571Y-9850143D02*
X13820857Y-9864429D01*
X13806571Y-9878714D01*
X13792286Y-9864429D01*
X13806571Y-9850143D01*
X13806571Y-9878714D01*
X14006571Y-9578714D02*
X14035143Y-9578714D01*
X14063714Y-9593000D01*
X14078000Y-9607286D01*
X14092286Y-9635857D01*
X14106571Y-9693000D01*
X14106571Y-9764429D01*
X14092286Y-9821572D01*
X14078000Y-9850143D01*
X14063714Y-9864429D01*
X14035143Y-9878714D01*
X14006571Y-9878714D01*
X13978000Y-9864429D01*
X13963714Y-9850143D01*
X13949428Y-9821572D01*
X13935143Y-9764429D01*
X13935143Y-9693000D01*
X13949428Y-9635857D01*
X13963714Y-9607286D01*
X13978000Y-9593000D01*
X14006571Y-9578714D01*
X14206571Y-9578714D02*
X14392286Y-9578714D01*
X14292286Y-9693000D01*
X14335143Y-9693000D01*
X14363714Y-9707286D01*
X14378000Y-9721572D01*
X14392286Y-9750143D01*
X14392286Y-9821572D01*
X14378000Y-9850143D01*
X14363714Y-9864429D01*
X14335143Y-9878714D01*
X14249428Y-9878714D01*
X14220857Y-9864429D01*
X14206571Y-9850143D01*
X14535143Y-9878714D02*
X14592286Y-9878714D01*
X14620857Y-9864429D01*
X14635143Y-9850143D01*
X14663714Y-9807286D01*
X14678000Y-9750143D01*
X14678000Y-9635857D01*
X14663714Y-9607286D01*
X14649428Y-9593000D01*
X14620857Y-9578714D01*
X14563714Y-9578714D01*
X14535143Y-9593000D01*
X14520857Y-9607286D01*
X14506571Y-9635857D01*
X14506571Y-9707286D01*
X14520857Y-9735857D01*
X14535143Y-9750143D01*
X14563714Y-9764429D01*
X14620857Y-9764429D01*
X14649428Y-9750143D01*
X14663714Y-9735857D01*
X14678000Y-9707286D01*
X14792286Y-9578714D02*
X14792286Y-9635857D01*
X14906571Y-9578714D02*
X14906571Y-9635857D01*
X15349428Y-9993000D02*
X15335143Y-9978714D01*
X15306571Y-9935857D01*
X15292286Y-9907286D01*
X15278000Y-9864429D01*
X15263714Y-9793000D01*
X15263714Y-9735857D01*
X15278000Y-9664429D01*
X15292286Y-9621572D01*
X15306571Y-9593000D01*
X15335143Y-9550143D01*
X15349428Y-9535857D01*
X15506571Y-9707286D02*
X15478000Y-9693000D01*
X15463714Y-9678714D01*
X15449428Y-9650143D01*
X15449428Y-9635857D01*
X15463714Y-9607286D01*
X15478000Y-9593000D01*
X15506571Y-9578714D01*
X15563714Y-9578714D01*
X15592286Y-9593000D01*
X15606571Y-9607286D01*
X15620857Y-9635857D01*
X15620857Y-9650143D01*
X15606571Y-9678714D01*
X15592286Y-9693000D01*
X15563714Y-9707286D01*
X15506571Y-9707286D01*
X15478000Y-9721572D01*
X15463714Y-9735857D01*
X15449428Y-9764429D01*
X15449428Y-9821572D01*
X15463714Y-9850143D01*
X15478000Y-9864429D01*
X15506571Y-9878714D01*
X15563714Y-9878714D01*
X15592286Y-9864429D01*
X15606571Y-9850143D01*
X15620857Y-9821572D01*
X15620857Y-9764429D01*
X15606571Y-9735857D01*
X15592286Y-9721572D01*
X15563714Y-9707286D01*
X15978000Y-9878714D02*
X15978000Y-9578714D01*
X16106571Y-9878714D02*
X16106571Y-9721572D01*
X16092286Y-9693000D01*
X16063714Y-9678714D01*
X16020857Y-9678714D01*
X15992286Y-9693000D01*
X15978000Y-9707286D01*
X16292286Y-9878714D02*
X16263714Y-9864429D01*
X16249428Y-9850143D01*
X16235143Y-9821572D01*
X16235143Y-9735857D01*
X16249428Y-9707286D01*
X16263714Y-9693000D01*
X16292286Y-9678714D01*
X16335143Y-9678714D01*
X16363714Y-9693000D01*
X16378000Y-9707286D01*
X16392286Y-9735857D01*
X16392286Y-9821572D01*
X16378000Y-9850143D01*
X16363714Y-9864429D01*
X16335143Y-9878714D01*
X16292286Y-9878714D01*
X16563714Y-9878714D02*
X16535143Y-9864429D01*
X16520857Y-9835857D01*
X16520857Y-9578714D01*
X16792286Y-9864429D02*
X16763714Y-9878714D01*
X16706571Y-9878714D01*
X16678000Y-9864429D01*
X16663714Y-9835857D01*
X16663714Y-9721572D01*
X16678000Y-9693000D01*
X16706571Y-9678714D01*
X16763714Y-9678714D01*
X16792286Y-9693000D01*
X16806571Y-9721572D01*
X16806571Y-9750143D01*
X16663714Y-9778714D01*
X16920857Y-9864429D02*
X16949428Y-9878714D01*
X17006571Y-9878714D01*
X17035143Y-9864429D01*
X17049428Y-9835857D01*
X17049428Y-9821572D01*
X17035143Y-9793000D01*
X17006571Y-9778714D01*
X16963714Y-9778714D01*
X16935143Y-9764429D01*
X16920857Y-9735857D01*
X16920857Y-9721572D01*
X16935143Y-9693000D01*
X16963714Y-9678714D01*
X17006571Y-9678714D01*
X17035143Y-9693000D01*
X17149428Y-9993000D02*
X17163714Y-9978714D01*
X17192286Y-9935857D01*
X17206571Y-9907286D01*
X17220857Y-9864429D01*
X17235143Y-9793000D01*
X17235143Y-9735857D01*
X17220857Y-9664429D01*
X17206571Y-9621572D01*
X17192286Y-9593000D01*
X17163714Y-9550143D01*
X17149428Y-9535857D01*
X10538000Y-10014000D02*
X10538000Y-10264000D01*
X10413000Y-10139000D02*
X10663000Y-10139000D01*
X10935143Y-10003286D02*
X10949428Y-9989000D01*
X10978000Y-9974714D01*
X11049428Y-9974714D01*
X11078000Y-9989000D01*
X11092286Y-10003286D01*
X11106571Y-10031857D01*
X11106571Y-10060429D01*
X11092286Y-10103286D01*
X10920857Y-10274714D01*
X11106571Y-10274714D01*
X11235143Y-10246143D02*
X11249428Y-10260429D01*
X11235143Y-10274714D01*
X11220857Y-10260429D01*
X11235143Y-10246143D01*
X11235143Y-10274714D01*
X11520857Y-9974714D02*
X11378000Y-9974714D01*
X11363714Y-10117572D01*
X11378000Y-10103286D01*
X11406571Y-10089000D01*
X11478000Y-10089000D01*
X11506571Y-10103286D01*
X11520857Y-10117572D01*
X11535143Y-10146143D01*
X11535143Y-10217572D01*
X11520857Y-10246143D01*
X11506571Y-10260429D01*
X11478000Y-10274714D01*
X11406571Y-10274714D01*
X11378000Y-10260429D01*
X11363714Y-10246143D01*
X11720857Y-9974714D02*
X11749428Y-9974714D01*
X11778000Y-9989000D01*
X11792286Y-10003286D01*
X11806571Y-10031857D01*
X11820857Y-10089000D01*
X11820857Y-10160429D01*
X11806571Y-10217572D01*
X11792286Y-10246143D01*
X11778000Y-10260429D01*
X11749428Y-10274714D01*
X11720857Y-10274714D01*
X11692286Y-10260429D01*
X11678000Y-10246143D01*
X11663714Y-10217572D01*
X11649428Y-10160429D01*
X11649428Y-10089000D01*
X11663714Y-10031857D01*
X11678000Y-10003286D01*
X11692286Y-9989000D01*
X11720857Y-9974714D01*
X11949428Y-10274714D02*
X11949428Y-10074714D01*
X11949428Y-10103286D02*
X11963714Y-10089000D01*
X11992286Y-10074714D01*
X12035143Y-10074714D01*
X12063714Y-10089000D01*
X12078000Y-10117572D01*
X12078000Y-10274714D01*
X12078000Y-10117572D02*
X12092286Y-10089000D01*
X12120857Y-10074714D01*
X12163714Y-10074714D01*
X12192286Y-10089000D01*
X12206571Y-10117572D01*
X12206571Y-10274714D01*
X12349428Y-10274714D02*
X12349428Y-10074714D01*
X12349428Y-10103286D02*
X12363714Y-10089000D01*
X12392286Y-10074714D01*
X12435143Y-10074714D01*
X12463714Y-10089000D01*
X12478000Y-10117572D01*
X12478000Y-10274714D01*
X12478000Y-10117572D02*
X12492286Y-10089000D01*
X12520857Y-10074714D01*
X12563714Y-10074714D01*
X12592286Y-10089000D01*
X12606571Y-10117572D01*
X12606571Y-10274714D01*
X13192286Y-9960429D02*
X12935143Y-10346143D01*
X13578000Y-9974714D02*
X13606571Y-9974714D01*
X13635143Y-9989000D01*
X13649428Y-10003286D01*
X13663714Y-10031857D01*
X13678000Y-10089000D01*
X13678000Y-10160429D01*
X13663714Y-10217572D01*
X13649428Y-10246143D01*
X13635143Y-10260429D01*
X13606571Y-10274714D01*
X13578000Y-10274714D01*
X13549428Y-10260429D01*
X13535143Y-10246143D01*
X13520857Y-10217572D01*
X13506571Y-10160429D01*
X13506571Y-10089000D01*
X13520857Y-10031857D01*
X13535143Y-10003286D01*
X13549428Y-9989000D01*
X13578000Y-9974714D01*
X13806571Y-10246143D02*
X13820857Y-10260429D01*
X13806571Y-10274714D01*
X13792286Y-10260429D01*
X13806571Y-10246143D01*
X13806571Y-10274714D01*
X14006571Y-9974714D02*
X14035143Y-9974714D01*
X14063714Y-9989000D01*
X14078000Y-10003286D01*
X14092286Y-10031857D01*
X14106571Y-10089000D01*
X14106571Y-10160429D01*
X14092286Y-10217572D01*
X14078000Y-10246143D01*
X14063714Y-10260429D01*
X14035143Y-10274714D01*
X14006571Y-10274714D01*
X13978000Y-10260429D01*
X13963714Y-10246143D01*
X13949428Y-10217572D01*
X13935143Y-10160429D01*
X13935143Y-10089000D01*
X13949428Y-10031857D01*
X13963714Y-10003286D01*
X13978000Y-9989000D01*
X14006571Y-9974714D01*
X14249428Y-10274714D02*
X14306571Y-10274714D01*
X14335143Y-10260429D01*
X14349428Y-10246143D01*
X14378000Y-10203286D01*
X14392286Y-10146143D01*
X14392286Y-10031857D01*
X14378000Y-10003286D01*
X14363714Y-9989000D01*
X14335143Y-9974714D01*
X14278000Y-9974714D01*
X14249428Y-9989000D01*
X14235143Y-10003286D01*
X14220857Y-10031857D01*
X14220857Y-10103286D01*
X14235143Y-10131857D01*
X14249428Y-10146143D01*
X14278000Y-10160429D01*
X14335143Y-10160429D01*
X14363714Y-10146143D01*
X14378000Y-10131857D01*
X14392286Y-10103286D01*
X14563714Y-10103286D02*
X14535143Y-10089000D01*
X14520857Y-10074714D01*
X14506571Y-10046143D01*
X14506571Y-10031857D01*
X14520857Y-10003286D01*
X14535143Y-9989000D01*
X14563714Y-9974714D01*
X14620857Y-9974714D01*
X14649428Y-9989000D01*
X14663714Y-10003286D01*
X14678000Y-10031857D01*
X14678000Y-10046143D01*
X14663714Y-10074714D01*
X14649428Y-10089000D01*
X14620857Y-10103286D01*
X14563714Y-10103286D01*
X14535143Y-10117572D01*
X14520857Y-10131857D01*
X14506571Y-10160429D01*
X14506571Y-10217572D01*
X14520857Y-10246143D01*
X14535143Y-10260429D01*
X14563714Y-10274714D01*
X14620857Y-10274714D01*
X14649428Y-10260429D01*
X14663714Y-10246143D01*
X14678000Y-10217572D01*
X14678000Y-10160429D01*
X14663714Y-10131857D01*
X14649428Y-10117572D01*
X14620857Y-10103286D01*
X14792286Y-9974714D02*
X14792286Y-10031857D01*
X14906571Y-9974714D02*
X14906571Y-10031857D01*
X15349428Y-10389000D02*
X15335143Y-10374714D01*
X15306571Y-10331857D01*
X15292286Y-10303286D01*
X15278000Y-10260429D01*
X15263714Y-10189000D01*
X15263714Y-10131857D01*
X15278000Y-10060429D01*
X15292286Y-10017572D01*
X15306571Y-9989000D01*
X15335143Y-9946143D01*
X15349428Y-9931857D01*
X15449428Y-10003286D02*
X15463714Y-9989000D01*
X15492286Y-9974714D01*
X15563714Y-9974714D01*
X15592286Y-9989000D01*
X15606571Y-10003286D01*
X15620857Y-10031857D01*
X15620857Y-10060429D01*
X15606571Y-10103286D01*
X15435143Y-10274714D01*
X15620857Y-10274714D01*
X15978000Y-10274714D02*
X15978000Y-9974714D01*
X16106571Y-10274714D02*
X16106571Y-10117572D01*
X16092286Y-10089000D01*
X16063714Y-10074714D01*
X16020857Y-10074714D01*
X15992286Y-10089000D01*
X15978000Y-10103286D01*
X16292286Y-10274714D02*
X16263714Y-10260429D01*
X16249428Y-10246143D01*
X16235143Y-10217572D01*
X16235143Y-10131857D01*
X16249428Y-10103286D01*
X16263714Y-10089000D01*
X16292286Y-10074714D01*
X16335143Y-10074714D01*
X16363714Y-10089000D01*
X16378000Y-10103286D01*
X16392286Y-10131857D01*
X16392286Y-10217572D01*
X16378000Y-10246143D01*
X16363714Y-10260429D01*
X16335143Y-10274714D01*
X16292286Y-10274714D01*
X16563714Y-10274714D02*
X16535143Y-10260429D01*
X16520857Y-10231857D01*
X16520857Y-9974714D01*
X16792286Y-10260429D02*
X16763714Y-10274714D01*
X16706571Y-10274714D01*
X16678000Y-10260429D01*
X16663714Y-10231857D01*
X16663714Y-10117572D01*
X16678000Y-10089000D01*
X16706571Y-10074714D01*
X16763714Y-10074714D01*
X16792286Y-10089000D01*
X16806571Y-10117572D01*
X16806571Y-10146143D01*
X16663714Y-10174714D01*
X16920857Y-10260429D02*
X16949428Y-10274714D01*
X17006571Y-10274714D01*
X17035143Y-10260429D01*
X17049428Y-10231857D01*
X17049428Y-10217572D01*
X17035143Y-10189000D01*
X17006571Y-10174714D01*
X16963714Y-10174714D01*
X16935143Y-10160429D01*
X16920857Y-10131857D01*
X16920857Y-10117572D01*
X16935143Y-10089000D01*
X16963714Y-10074714D01*
X17006571Y-10074714D01*
X17035143Y-10089000D01*
X17149428Y-10389000D02*
X17163714Y-10374714D01*
X17192286Y-10331857D01*
X17206571Y-10303286D01*
X17220857Y-10260429D01*
X17235143Y-10189000D01*
X17235143Y-10131857D01*
X17220857Y-10060429D01*
X17206571Y-10017572D01*
X17192286Y-9989000D01*
X17163714Y-9946143D01*
X17149428Y-9931857D01*
X17692286Y-10389000D02*
X17678000Y-10374714D01*
X17649428Y-10331857D01*
X17635143Y-10303286D01*
X17620857Y-10260429D01*
X17606571Y-10189000D01*
X17606571Y-10131857D01*
X17620857Y-10060429D01*
X17635143Y-10017572D01*
X17649428Y-9989000D01*
X17678000Y-9946143D01*
X17692286Y-9931857D01*
X17806571Y-10074714D02*
X17806571Y-10274714D01*
X17806571Y-10103286D02*
X17820857Y-10089000D01*
X17849428Y-10074714D01*
X17892286Y-10074714D01*
X17920857Y-10089000D01*
X17935143Y-10117572D01*
X17935143Y-10274714D01*
X18120857Y-10274714D02*
X18092286Y-10260429D01*
X18078000Y-10246143D01*
X18063714Y-10217572D01*
X18063714Y-10131857D01*
X18078000Y-10103286D01*
X18092286Y-10089000D01*
X18120857Y-10074714D01*
X18163714Y-10074714D01*
X18192286Y-10089000D01*
X18206571Y-10103286D01*
X18220857Y-10131857D01*
X18220857Y-10217572D01*
X18206571Y-10246143D01*
X18192286Y-10260429D01*
X18163714Y-10274714D01*
X18120857Y-10274714D01*
X18306571Y-10074714D02*
X18420857Y-10074714D01*
X18349428Y-9974714D02*
X18349428Y-10231857D01*
X18363714Y-10260429D01*
X18392286Y-10274714D01*
X18420857Y-10274714D01*
X18749428Y-10074714D02*
X18749428Y-10374714D01*
X18749428Y-10089000D02*
X18778000Y-10074714D01*
X18835143Y-10074714D01*
X18863714Y-10089000D01*
X18878000Y-10103286D01*
X18892286Y-10131857D01*
X18892286Y-10217572D01*
X18878000Y-10246143D01*
X18863714Y-10260429D01*
X18835143Y-10274714D01*
X18778000Y-10274714D01*
X18749428Y-10260429D01*
X19063714Y-10274714D02*
X19035143Y-10260429D01*
X19020857Y-10231857D01*
X19020857Y-9974714D01*
X19306571Y-10274714D02*
X19306571Y-10117572D01*
X19292286Y-10089000D01*
X19263714Y-10074714D01*
X19206571Y-10074714D01*
X19178000Y-10089000D01*
X19306571Y-10260429D02*
X19278000Y-10274714D01*
X19206571Y-10274714D01*
X19178000Y-10260429D01*
X19163714Y-10231857D01*
X19163714Y-10203286D01*
X19178000Y-10174714D01*
X19206571Y-10160429D01*
X19278000Y-10160429D01*
X19306571Y-10146143D01*
X19406571Y-10074714D02*
X19520857Y-10074714D01*
X19449428Y-9974714D02*
X19449428Y-10231857D01*
X19463714Y-10260429D01*
X19492286Y-10274714D01*
X19520857Y-10274714D01*
X19735143Y-10260429D02*
X19706571Y-10274714D01*
X19649428Y-10274714D01*
X19620857Y-10260429D01*
X19606571Y-10231857D01*
X19606571Y-10117572D01*
X19620857Y-10089000D01*
X19649428Y-10074714D01*
X19706571Y-10074714D01*
X19735143Y-10089000D01*
X19749428Y-10117572D01*
X19749428Y-10146143D01*
X19606571Y-10174714D01*
X20006571Y-10274714D02*
X20006571Y-9974714D01*
X20006571Y-10260429D02*
X19978000Y-10274714D01*
X19920857Y-10274714D01*
X19892286Y-10260429D01*
X19878000Y-10246143D01*
X19863714Y-10217572D01*
X19863714Y-10131857D01*
X19878000Y-10103286D01*
X19892286Y-10089000D01*
X19920857Y-10074714D01*
X19978000Y-10074714D01*
X20006571Y-10089000D01*
X20120857Y-10389000D02*
X20135143Y-10374714D01*
X20163714Y-10331857D01*
X20178000Y-10303286D01*
X20192286Y-10260429D01*
X20206571Y-10189000D01*
X20206571Y-10131857D01*
X20192286Y-10060429D01*
X20178000Y-10017572D01*
X20163714Y-9989000D01*
X20135143Y-9946143D01*
X20120857Y-9931857D01*
M02*
