G04 #@! TF.GenerationSoftware,KiCad,Pcbnew,(5.0.0-rc2-dev-444-g2974a2c10)*
G04 #@! TF.CreationDate,2019-08-03T11:43:22-07:00*
G04 #@! TF.ProjectId,AD5245_breakout,4144353234355F627265616B6F75742E,v01*
G04 #@! TF.SameCoordinates,Original*
G04 #@! TF.FileFunction,Copper,L2,Bot,Signal*
G04 #@! TF.FilePolarity,Positive*
%FSLAX46Y46*%
G04 Gerber Fmt 4.6, Leading zero omitted, Abs format (unit mm)*
G04 Created by KiCad (PCBNEW (5.0.0-rc2-dev-444-g2974a2c10)) date 08/03/19 11:43:22*
%MOMM*%
%LPD*%
G01*
G04 APERTURE LIST*
%ADD10O,1.700000X1.700000*%
%ADD11R,1.700000X1.700000*%
%ADD12C,0.685800*%
%ADD13C,0.152400*%
%ADD14C,0.254000*%
G04 APERTURE END LIST*
D10*
X120650000Y-82550000D03*
X118110000Y-82550000D03*
X115570000Y-82550000D03*
X113030000Y-82550000D03*
D11*
X110490000Y-82550000D03*
D10*
X118110000Y-69850000D03*
X115570000Y-69850000D03*
D11*
X113030000Y-69850000D03*
D12*
X122809000Y-82169000D03*
X119761000Y-71374000D03*
X109855000Y-76708000D03*
X111379000Y-71374000D03*
X116713000Y-71755000D03*
X113030000Y-76073000D03*
X118110000Y-76073000D03*
D13*
X116713000Y-71755000D02*
X113665000Y-71755000D01*
X113030000Y-71120000D02*
X113030000Y-69850000D01*
X113665000Y-71755000D02*
X113030000Y-71120000D01*
X113030000Y-76073000D02*
X117170190Y-76073000D01*
X117170190Y-76073000D02*
X117805190Y-76708000D01*
X115570000Y-82550000D02*
X117805190Y-80314810D01*
X117805190Y-80314810D02*
X117805190Y-76708000D01*
X118110000Y-76073000D02*
X118110000Y-82550000D01*
D14*
G36*
X111791536Y-70700000D02*
X111821106Y-70848659D01*
X111905314Y-70974686D01*
X112031341Y-71058894D01*
X112180000Y-71088464D01*
X112570116Y-71088464D01*
X112563843Y-71120000D01*
X112572800Y-71165029D01*
X112599327Y-71298390D01*
X112700377Y-71449623D01*
X112738554Y-71475132D01*
X113309868Y-72046446D01*
X113335377Y-72084623D01*
X113486609Y-72185673D01*
X113665000Y-72221157D01*
X113710030Y-72212200D01*
X116146451Y-72212200D01*
X116302944Y-72368693D01*
X116569007Y-72478900D01*
X116856993Y-72478900D01*
X117123056Y-72368693D01*
X117326693Y-72165056D01*
X117436900Y-71898993D01*
X117436900Y-71611007D01*
X117326693Y-71344944D01*
X117123056Y-71141307D01*
X116856993Y-71031100D01*
X116569007Y-71031100D01*
X116302944Y-71141307D01*
X116146451Y-71297800D01*
X113854378Y-71297800D01*
X113645042Y-71088464D01*
X113880000Y-71088464D01*
X114028659Y-71058894D01*
X114154686Y-70974686D01*
X114238894Y-70848659D01*
X114268464Y-70700000D01*
X114268464Y-69342000D01*
X114428925Y-69342000D01*
X114410424Y-69369688D01*
X114314884Y-69850000D01*
X114410424Y-70330312D01*
X114682499Y-70737501D01*
X115089688Y-71009576D01*
X115448761Y-71081000D01*
X115691239Y-71081000D01*
X116050312Y-71009576D01*
X116457501Y-70737501D01*
X116729576Y-70330312D01*
X116825116Y-69850000D01*
X116729576Y-69369688D01*
X116711075Y-69342000D01*
X116968925Y-69342000D01*
X116950424Y-69369688D01*
X116854884Y-69850000D01*
X116950424Y-70330312D01*
X117222499Y-70737501D01*
X117629688Y-71009576D01*
X117988761Y-71081000D01*
X118231239Y-71081000D01*
X118590312Y-71009576D01*
X118910588Y-70795574D01*
X120289000Y-70795574D01*
X120289000Y-71444426D01*
X120537305Y-72043887D01*
X120996113Y-72502695D01*
X121595574Y-72751000D01*
X122244426Y-72751000D01*
X122843887Y-72502695D01*
X123302695Y-72043887D01*
X123551000Y-71444426D01*
X123551000Y-70795574D01*
X123302695Y-70196113D01*
X122843887Y-69737305D01*
X122244426Y-69489000D01*
X121595574Y-69489000D01*
X120996113Y-69737305D01*
X120537305Y-70196113D01*
X120289000Y-70795574D01*
X118910588Y-70795574D01*
X118997501Y-70737501D01*
X119269576Y-70330312D01*
X119365116Y-69850000D01*
X119269576Y-69369688D01*
X119251075Y-69342000D01*
X122502394Y-69342000D01*
X123698000Y-70537606D01*
X123698000Y-82497394D01*
X123137394Y-83058000D01*
X121791075Y-83058000D01*
X121809576Y-83030312D01*
X121905116Y-82550000D01*
X121809576Y-82069688D01*
X121537501Y-81662499D01*
X121130312Y-81390424D01*
X120771239Y-81319000D01*
X120528761Y-81319000D01*
X120169688Y-81390424D01*
X119762499Y-81662499D01*
X119490424Y-82069688D01*
X119394884Y-82550000D01*
X119490424Y-83030312D01*
X119508925Y-83058000D01*
X119251075Y-83058000D01*
X119269576Y-83030312D01*
X119365116Y-82550000D01*
X119269576Y-82069688D01*
X118997501Y-81662499D01*
X118590312Y-81390424D01*
X118567200Y-81385827D01*
X118567200Y-76639549D01*
X118723693Y-76483056D01*
X118833900Y-76216993D01*
X118833900Y-75929007D01*
X118723693Y-75662944D01*
X118520056Y-75459307D01*
X118253993Y-75349100D01*
X117966007Y-75349100D01*
X117699944Y-75459307D01*
X117496307Y-75662944D01*
X117470973Y-75724106D01*
X117348581Y-75642327D01*
X117215220Y-75615800D01*
X117170190Y-75606843D01*
X117125160Y-75615800D01*
X113596549Y-75615800D01*
X113440056Y-75459307D01*
X113173993Y-75349100D01*
X112886007Y-75349100D01*
X112619944Y-75459307D01*
X112416307Y-75662944D01*
X112306100Y-75929007D01*
X112306100Y-76216993D01*
X112416307Y-76483056D01*
X112619944Y-76686693D01*
X112886007Y-76796900D01*
X113173993Y-76796900D01*
X113440056Y-76686693D01*
X113596549Y-76530200D01*
X116980812Y-76530200D01*
X117347991Y-76897379D01*
X117347990Y-80125431D01*
X116069906Y-81403516D01*
X116050312Y-81390424D01*
X115691239Y-81319000D01*
X115448761Y-81319000D01*
X115089688Y-81390424D01*
X114682499Y-81662499D01*
X114412245Y-82066963D01*
X114225183Y-81668642D01*
X113796924Y-81278355D01*
X113386890Y-81108524D01*
X113157000Y-81229845D01*
X113157000Y-82423000D01*
X113177000Y-82423000D01*
X113177000Y-82677000D01*
X113157000Y-82677000D01*
X113157000Y-82697000D01*
X112903000Y-82697000D01*
X112903000Y-82677000D01*
X112883000Y-82677000D01*
X112883000Y-82423000D01*
X112903000Y-82423000D01*
X112903000Y-81229845D01*
X112673110Y-81108524D01*
X112263076Y-81278355D01*
X111834817Y-81668642D01*
X111728464Y-81895105D01*
X111728464Y-81700000D01*
X111698894Y-81551341D01*
X111614686Y-81425314D01*
X111488659Y-81341106D01*
X111340000Y-81311536D01*
X109640000Y-81311536D01*
X109491341Y-81341106D01*
X109365314Y-81425314D01*
X109281106Y-81551341D01*
X109251536Y-81700000D01*
X109251536Y-83058000D01*
X108002606Y-83058000D01*
X107442000Y-82497394D01*
X107442000Y-70795574D01*
X107589000Y-70795574D01*
X107589000Y-71444426D01*
X107837305Y-72043887D01*
X108296113Y-72502695D01*
X108895574Y-72751000D01*
X109544426Y-72751000D01*
X110143887Y-72502695D01*
X110602695Y-72043887D01*
X110851000Y-71444426D01*
X110851000Y-70795574D01*
X110602695Y-70196113D01*
X110143887Y-69737305D01*
X109544426Y-69489000D01*
X108895574Y-69489000D01*
X108296113Y-69737305D01*
X107837305Y-70196113D01*
X107589000Y-70795574D01*
X107442000Y-70795574D01*
X107442000Y-70537606D01*
X108637606Y-69342000D01*
X111791536Y-69342000D01*
X111791536Y-70700000D01*
X111791536Y-70700000D01*
G37*
X111791536Y-70700000D02*
X111821106Y-70848659D01*
X111905314Y-70974686D01*
X112031341Y-71058894D01*
X112180000Y-71088464D01*
X112570116Y-71088464D01*
X112563843Y-71120000D01*
X112572800Y-71165029D01*
X112599327Y-71298390D01*
X112700377Y-71449623D01*
X112738554Y-71475132D01*
X113309868Y-72046446D01*
X113335377Y-72084623D01*
X113486609Y-72185673D01*
X113665000Y-72221157D01*
X113710030Y-72212200D01*
X116146451Y-72212200D01*
X116302944Y-72368693D01*
X116569007Y-72478900D01*
X116856993Y-72478900D01*
X117123056Y-72368693D01*
X117326693Y-72165056D01*
X117436900Y-71898993D01*
X117436900Y-71611007D01*
X117326693Y-71344944D01*
X117123056Y-71141307D01*
X116856993Y-71031100D01*
X116569007Y-71031100D01*
X116302944Y-71141307D01*
X116146451Y-71297800D01*
X113854378Y-71297800D01*
X113645042Y-71088464D01*
X113880000Y-71088464D01*
X114028659Y-71058894D01*
X114154686Y-70974686D01*
X114238894Y-70848659D01*
X114268464Y-70700000D01*
X114268464Y-69342000D01*
X114428925Y-69342000D01*
X114410424Y-69369688D01*
X114314884Y-69850000D01*
X114410424Y-70330312D01*
X114682499Y-70737501D01*
X115089688Y-71009576D01*
X115448761Y-71081000D01*
X115691239Y-71081000D01*
X116050312Y-71009576D01*
X116457501Y-70737501D01*
X116729576Y-70330312D01*
X116825116Y-69850000D01*
X116729576Y-69369688D01*
X116711075Y-69342000D01*
X116968925Y-69342000D01*
X116950424Y-69369688D01*
X116854884Y-69850000D01*
X116950424Y-70330312D01*
X117222499Y-70737501D01*
X117629688Y-71009576D01*
X117988761Y-71081000D01*
X118231239Y-71081000D01*
X118590312Y-71009576D01*
X118910588Y-70795574D01*
X120289000Y-70795574D01*
X120289000Y-71444426D01*
X120537305Y-72043887D01*
X120996113Y-72502695D01*
X121595574Y-72751000D01*
X122244426Y-72751000D01*
X122843887Y-72502695D01*
X123302695Y-72043887D01*
X123551000Y-71444426D01*
X123551000Y-70795574D01*
X123302695Y-70196113D01*
X122843887Y-69737305D01*
X122244426Y-69489000D01*
X121595574Y-69489000D01*
X120996113Y-69737305D01*
X120537305Y-70196113D01*
X120289000Y-70795574D01*
X118910588Y-70795574D01*
X118997501Y-70737501D01*
X119269576Y-70330312D01*
X119365116Y-69850000D01*
X119269576Y-69369688D01*
X119251075Y-69342000D01*
X122502394Y-69342000D01*
X123698000Y-70537606D01*
X123698000Y-82497394D01*
X123137394Y-83058000D01*
X121791075Y-83058000D01*
X121809576Y-83030312D01*
X121905116Y-82550000D01*
X121809576Y-82069688D01*
X121537501Y-81662499D01*
X121130312Y-81390424D01*
X120771239Y-81319000D01*
X120528761Y-81319000D01*
X120169688Y-81390424D01*
X119762499Y-81662499D01*
X119490424Y-82069688D01*
X119394884Y-82550000D01*
X119490424Y-83030312D01*
X119508925Y-83058000D01*
X119251075Y-83058000D01*
X119269576Y-83030312D01*
X119365116Y-82550000D01*
X119269576Y-82069688D01*
X118997501Y-81662499D01*
X118590312Y-81390424D01*
X118567200Y-81385827D01*
X118567200Y-76639549D01*
X118723693Y-76483056D01*
X118833900Y-76216993D01*
X118833900Y-75929007D01*
X118723693Y-75662944D01*
X118520056Y-75459307D01*
X118253993Y-75349100D01*
X117966007Y-75349100D01*
X117699944Y-75459307D01*
X117496307Y-75662944D01*
X117470973Y-75724106D01*
X117348581Y-75642327D01*
X117215220Y-75615800D01*
X117170190Y-75606843D01*
X117125160Y-75615800D01*
X113596549Y-75615800D01*
X113440056Y-75459307D01*
X113173993Y-75349100D01*
X112886007Y-75349100D01*
X112619944Y-75459307D01*
X112416307Y-75662944D01*
X112306100Y-75929007D01*
X112306100Y-76216993D01*
X112416307Y-76483056D01*
X112619944Y-76686693D01*
X112886007Y-76796900D01*
X113173993Y-76796900D01*
X113440056Y-76686693D01*
X113596549Y-76530200D01*
X116980812Y-76530200D01*
X117347991Y-76897379D01*
X117347990Y-80125431D01*
X116069906Y-81403516D01*
X116050312Y-81390424D01*
X115691239Y-81319000D01*
X115448761Y-81319000D01*
X115089688Y-81390424D01*
X114682499Y-81662499D01*
X114412245Y-82066963D01*
X114225183Y-81668642D01*
X113796924Y-81278355D01*
X113386890Y-81108524D01*
X113157000Y-81229845D01*
X113157000Y-82423000D01*
X113177000Y-82423000D01*
X113177000Y-82677000D01*
X113157000Y-82677000D01*
X113157000Y-82697000D01*
X112903000Y-82697000D01*
X112903000Y-82677000D01*
X112883000Y-82677000D01*
X112883000Y-82423000D01*
X112903000Y-82423000D01*
X112903000Y-81229845D01*
X112673110Y-81108524D01*
X112263076Y-81278355D01*
X111834817Y-81668642D01*
X111728464Y-81895105D01*
X111728464Y-81700000D01*
X111698894Y-81551341D01*
X111614686Y-81425314D01*
X111488659Y-81341106D01*
X111340000Y-81311536D01*
X109640000Y-81311536D01*
X109491341Y-81341106D01*
X109365314Y-81425314D01*
X109281106Y-81551341D01*
X109251536Y-81700000D01*
X109251536Y-83058000D01*
X108002606Y-83058000D01*
X107442000Y-82497394D01*
X107442000Y-70795574D01*
X107589000Y-70795574D01*
X107589000Y-71444426D01*
X107837305Y-72043887D01*
X108296113Y-72502695D01*
X108895574Y-72751000D01*
X109544426Y-72751000D01*
X110143887Y-72502695D01*
X110602695Y-72043887D01*
X110851000Y-71444426D01*
X110851000Y-70795574D01*
X110602695Y-70196113D01*
X110143887Y-69737305D01*
X109544426Y-69489000D01*
X108895574Y-69489000D01*
X108296113Y-69737305D01*
X107837305Y-70196113D01*
X107589000Y-70795574D01*
X107442000Y-70795574D01*
X107442000Y-70537606D01*
X108637606Y-69342000D01*
X111791536Y-69342000D01*
X111791536Y-70700000D01*
M02*
