G04 #@! TF.GenerationSoftware,KiCad,Pcbnew,(5.0.0-rc2-dev-444-g2974a2c10)*
G04 #@! TF.CreationDate,2019-08-03T11:43:22-07:00*
G04 #@! TF.ProjectId,AD5245_breakout,4144353234355F627265616B6F75742E,v01*
G04 #@! TF.SameCoordinates,Original*
G04 #@! TF.FileFunction,Copper,L1,Top,Signal*
G04 #@! TF.FilePolarity,Positive*
%FSLAX46Y46*%
G04 Gerber Fmt 4.6, Leading zero omitted, Abs format (unit mm)*
G04 Created by KiCad (PCBNEW (5.0.0-rc2-dev-444-g2974a2c10)) date 08/03/19 11:43:22*
%MOMM*%
%LPD*%
G01*
G04 APERTURE LIST*
%ADD10C,0.750000*%
%ADD11R,1.250000X1.000000*%
%ADD12R,1.300000X0.700000*%
%ADD13R,1.200000X1.200000*%
%ADD14R,1.060000X0.400000*%
%ADD15O,1.700000X1.700000*%
%ADD16R,1.700000X1.700000*%
%ADD17C,0.685800*%
%ADD18C,0.254000*%
%ADD19C,0.152400*%
G04 APERTURE END LIST*
D10*
X111506000Y-72898000D03*
D11*
X114131000Y-77676450D03*
X114131000Y-79676450D03*
X111373000Y-79676450D03*
X111373000Y-77676450D03*
D12*
X116919000Y-79826450D03*
X116919000Y-77926450D03*
X108585000Y-79826450D03*
X108585000Y-77926450D03*
D13*
X110955000Y-74930000D03*
X108755000Y-74930000D03*
D12*
X119737000Y-77926450D03*
X119737000Y-79826450D03*
X122555000Y-77926450D03*
X122555000Y-79826450D03*
D14*
X116670000Y-73315000D03*
X116670000Y-73965000D03*
X116670000Y-74625000D03*
X116670000Y-75275000D03*
X114470000Y-75275000D03*
X114470000Y-74625000D03*
X114470000Y-73965000D03*
X114470000Y-73315000D03*
D10*
X108204000Y-82042000D03*
D15*
X120650000Y-82550000D03*
X118110000Y-82550000D03*
X115570000Y-82550000D03*
X113030000Y-82550000D03*
D16*
X110490000Y-82550000D03*
D15*
X118110000Y-69850000D03*
X115570000Y-69850000D03*
D16*
X113030000Y-69850000D03*
D17*
X122809000Y-82169000D03*
X119761000Y-71374000D03*
X109855000Y-76708000D03*
X111379000Y-71374000D03*
X116713000Y-71755000D03*
X113030000Y-76073000D03*
X118110000Y-76073000D03*
D18*
X108870450Y-79826450D02*
X108585000Y-79826450D01*
X110490000Y-81446000D02*
X108870450Y-79826450D01*
X110490000Y-82550000D02*
X110490000Y-81446000D01*
X111035000Y-77676450D02*
X111373000Y-77676450D01*
X108885000Y-79826450D02*
X111035000Y-77676450D01*
X108585000Y-79826450D02*
X108885000Y-79826450D01*
X112252000Y-77676450D02*
X114131000Y-77676450D01*
X111373000Y-77676450D02*
X112252000Y-77676450D01*
X116669000Y-77676450D02*
X116919000Y-77926450D01*
X114131000Y-77676450D02*
X116669000Y-77676450D01*
X117823000Y-77926450D02*
X119737000Y-77926450D01*
X116919000Y-77926450D02*
X117823000Y-77926450D01*
X111498000Y-77676450D02*
X111373000Y-77676450D01*
X112268000Y-76906450D02*
X111498000Y-77676450D01*
X112268000Y-76906450D02*
X112268000Y-75057000D01*
X113360000Y-73965000D02*
X114470000Y-73965000D01*
X112268000Y-75057000D02*
X113360000Y-73965000D01*
D19*
X108585000Y-75100000D02*
X108755000Y-74930000D01*
X108585000Y-77926450D02*
X108585000Y-75100000D01*
X114470000Y-70950000D02*
X115570000Y-69850000D01*
X114470000Y-73315000D02*
X114470000Y-70950000D01*
X116670000Y-71798000D02*
X116713000Y-71755000D01*
X116670000Y-73315000D02*
X116670000Y-71798000D01*
X116919000Y-81201000D02*
X116919000Y-79826450D01*
X115570000Y-82550000D02*
X116919000Y-81201000D01*
X113030000Y-76073000D02*
X113030000Y-76073000D01*
X113514933Y-76073000D02*
X113030000Y-76073000D01*
X114024400Y-76073000D02*
X113514933Y-76073000D01*
X114470000Y-75627400D02*
X114024400Y-76073000D01*
X114470000Y-75275000D02*
X114470000Y-75627400D01*
X119737000Y-80923000D02*
X119737000Y-79826450D01*
X118110000Y-82550000D02*
X119737000Y-80923000D01*
X118110000Y-76073000D02*
X118110000Y-76073000D01*
X117625067Y-76073000D02*
X118110000Y-76073000D01*
X117115600Y-76073000D02*
X117625067Y-76073000D01*
X116670000Y-75627400D02*
X117115600Y-76073000D01*
X116670000Y-75275000D02*
X116670000Y-75627400D01*
X121499999Y-81700001D02*
X120650000Y-82550000D01*
X122555000Y-80645000D02*
X122555000Y-79826450D01*
X121499999Y-81700001D02*
X122555000Y-80645000D01*
X119710000Y-74625000D02*
X116670000Y-74625000D01*
X121499999Y-81700001D02*
X121499999Y-76414999D01*
X121499999Y-76414999D02*
X119710000Y-74625000D01*
X118110000Y-71052081D02*
X118110000Y-69850000D01*
X118110000Y-73207400D02*
X118110000Y-71052081D01*
X117352400Y-73965000D02*
X118110000Y-73207400D01*
X116670000Y-73965000D02*
X117352400Y-73965000D01*
D18*
G36*
X111791536Y-70700000D02*
X111821106Y-70848659D01*
X111905314Y-70974686D01*
X112031341Y-71058894D01*
X112180000Y-71088464D01*
X113880000Y-71088464D01*
X114012801Y-71062048D01*
X114012800Y-72726536D01*
X113940000Y-72726536D01*
X113791341Y-72756106D01*
X113665314Y-72840314D01*
X113581106Y-72966341D01*
X113551536Y-73115000D01*
X113551536Y-73457000D01*
X113410027Y-73457000D01*
X113359999Y-73447049D01*
X113309971Y-73457000D01*
X113309968Y-73457000D01*
X113161788Y-73486475D01*
X113036167Y-73570412D01*
X113036165Y-73570414D01*
X112993753Y-73598753D01*
X112965414Y-73641165D01*
X112190000Y-74416580D01*
X112190000Y-74203690D01*
X112093327Y-73970301D01*
X111914698Y-73791673D01*
X111777446Y-73734821D01*
X112002780Y-73641484D01*
X112249484Y-73394780D01*
X112383000Y-73072446D01*
X112383000Y-72723554D01*
X112249484Y-72401220D01*
X112002780Y-72154516D01*
X111680446Y-72021000D01*
X111331554Y-72021000D01*
X111009220Y-72154516D01*
X110762516Y-72401220D01*
X110629000Y-72723554D01*
X110629000Y-73072446D01*
X110762516Y-73394780D01*
X111009220Y-73641484D01*
X111210778Y-73724972D01*
X111082000Y-73853750D01*
X111082000Y-74803000D01*
X111102000Y-74803000D01*
X111102000Y-75057000D01*
X111082000Y-75057000D01*
X111082000Y-76006250D01*
X111240750Y-76165000D01*
X111681309Y-76165000D01*
X111760000Y-76132405D01*
X111760000Y-76696030D01*
X111668044Y-76787986D01*
X110748000Y-76787986D01*
X110599341Y-76817556D01*
X110473314Y-76901764D01*
X110389106Y-77027791D01*
X110359536Y-77176450D01*
X110359536Y-77633493D01*
X109600343Y-78392686D01*
X109623464Y-78276450D01*
X109623464Y-77576450D01*
X109593894Y-77427791D01*
X109509686Y-77301764D01*
X109383659Y-77217556D01*
X109235000Y-77187986D01*
X109042200Y-77187986D01*
X109042200Y-75918464D01*
X109355000Y-75918464D01*
X109503659Y-75888894D01*
X109629686Y-75804686D01*
X109713894Y-75678659D01*
X109720000Y-75647962D01*
X109720000Y-75656310D01*
X109816673Y-75889699D01*
X109995302Y-76068327D01*
X110228691Y-76165000D01*
X110669250Y-76165000D01*
X110828000Y-76006250D01*
X110828000Y-75057000D01*
X110808000Y-75057000D01*
X110808000Y-74803000D01*
X110828000Y-74803000D01*
X110828000Y-73853750D01*
X110669250Y-73695000D01*
X110228691Y-73695000D01*
X109995302Y-73791673D01*
X109816673Y-73970301D01*
X109720000Y-74203690D01*
X109720000Y-74212038D01*
X109713894Y-74181341D01*
X109629686Y-74055314D01*
X109503659Y-73971106D01*
X109355000Y-73941536D01*
X108155000Y-73941536D01*
X108006341Y-73971106D01*
X107880314Y-74055314D01*
X107796106Y-74181341D01*
X107766536Y-74330000D01*
X107766536Y-75530000D01*
X107796106Y-75678659D01*
X107880314Y-75804686D01*
X108006341Y-75888894D01*
X108127801Y-75913054D01*
X108127800Y-77187986D01*
X107935000Y-77187986D01*
X107786341Y-77217556D01*
X107660314Y-77301764D01*
X107576106Y-77427791D01*
X107546536Y-77576450D01*
X107546536Y-78276450D01*
X107576106Y-78425109D01*
X107660314Y-78551136D01*
X107786341Y-78635344D01*
X107935000Y-78664914D01*
X109235000Y-78664914D01*
X109351236Y-78641793D01*
X108905044Y-79087986D01*
X107935000Y-79087986D01*
X107786341Y-79117556D01*
X107660314Y-79201764D01*
X107576106Y-79327791D01*
X107546536Y-79476450D01*
X107546536Y-80176450D01*
X107576106Y-80325109D01*
X107660314Y-80451136D01*
X107786341Y-80535344D01*
X107935000Y-80564914D01*
X108890494Y-80564914D01*
X109637594Y-81312014D01*
X109491341Y-81341106D01*
X109365314Y-81425314D01*
X109281106Y-81551341D01*
X109251536Y-81700000D01*
X109251536Y-83058000D01*
X108002606Y-83058000D01*
X107746262Y-82801656D01*
X108029554Y-82919000D01*
X108378446Y-82919000D01*
X108700780Y-82785484D01*
X108947484Y-82538780D01*
X109081000Y-82216446D01*
X109081000Y-81867554D01*
X108947484Y-81545220D01*
X108700780Y-81298516D01*
X108378446Y-81165000D01*
X108029554Y-81165000D01*
X107707220Y-81298516D01*
X107460516Y-81545220D01*
X107442000Y-81589921D01*
X107442000Y-70795574D01*
X107589000Y-70795574D01*
X107589000Y-71444426D01*
X107837305Y-72043887D01*
X108296113Y-72502695D01*
X108895574Y-72751000D01*
X109544426Y-72751000D01*
X110143887Y-72502695D01*
X110602695Y-72043887D01*
X110851000Y-71444426D01*
X110851000Y-70795574D01*
X110602695Y-70196113D01*
X110143887Y-69737305D01*
X109544426Y-69489000D01*
X108895574Y-69489000D01*
X108296113Y-69737305D01*
X107837305Y-70196113D01*
X107589000Y-70795574D01*
X107442000Y-70795574D01*
X107442000Y-70537606D01*
X108637606Y-69342000D01*
X111791536Y-69342000D01*
X111791536Y-70700000D01*
X111791536Y-70700000D01*
G37*
X111791536Y-70700000D02*
X111821106Y-70848659D01*
X111905314Y-70974686D01*
X112031341Y-71058894D01*
X112180000Y-71088464D01*
X113880000Y-71088464D01*
X114012801Y-71062048D01*
X114012800Y-72726536D01*
X113940000Y-72726536D01*
X113791341Y-72756106D01*
X113665314Y-72840314D01*
X113581106Y-72966341D01*
X113551536Y-73115000D01*
X113551536Y-73457000D01*
X113410027Y-73457000D01*
X113359999Y-73447049D01*
X113309971Y-73457000D01*
X113309968Y-73457000D01*
X113161788Y-73486475D01*
X113036167Y-73570412D01*
X113036165Y-73570414D01*
X112993753Y-73598753D01*
X112965414Y-73641165D01*
X112190000Y-74416580D01*
X112190000Y-74203690D01*
X112093327Y-73970301D01*
X111914698Y-73791673D01*
X111777446Y-73734821D01*
X112002780Y-73641484D01*
X112249484Y-73394780D01*
X112383000Y-73072446D01*
X112383000Y-72723554D01*
X112249484Y-72401220D01*
X112002780Y-72154516D01*
X111680446Y-72021000D01*
X111331554Y-72021000D01*
X111009220Y-72154516D01*
X110762516Y-72401220D01*
X110629000Y-72723554D01*
X110629000Y-73072446D01*
X110762516Y-73394780D01*
X111009220Y-73641484D01*
X111210778Y-73724972D01*
X111082000Y-73853750D01*
X111082000Y-74803000D01*
X111102000Y-74803000D01*
X111102000Y-75057000D01*
X111082000Y-75057000D01*
X111082000Y-76006250D01*
X111240750Y-76165000D01*
X111681309Y-76165000D01*
X111760000Y-76132405D01*
X111760000Y-76696030D01*
X111668044Y-76787986D01*
X110748000Y-76787986D01*
X110599341Y-76817556D01*
X110473314Y-76901764D01*
X110389106Y-77027791D01*
X110359536Y-77176450D01*
X110359536Y-77633493D01*
X109600343Y-78392686D01*
X109623464Y-78276450D01*
X109623464Y-77576450D01*
X109593894Y-77427791D01*
X109509686Y-77301764D01*
X109383659Y-77217556D01*
X109235000Y-77187986D01*
X109042200Y-77187986D01*
X109042200Y-75918464D01*
X109355000Y-75918464D01*
X109503659Y-75888894D01*
X109629686Y-75804686D01*
X109713894Y-75678659D01*
X109720000Y-75647962D01*
X109720000Y-75656310D01*
X109816673Y-75889699D01*
X109995302Y-76068327D01*
X110228691Y-76165000D01*
X110669250Y-76165000D01*
X110828000Y-76006250D01*
X110828000Y-75057000D01*
X110808000Y-75057000D01*
X110808000Y-74803000D01*
X110828000Y-74803000D01*
X110828000Y-73853750D01*
X110669250Y-73695000D01*
X110228691Y-73695000D01*
X109995302Y-73791673D01*
X109816673Y-73970301D01*
X109720000Y-74203690D01*
X109720000Y-74212038D01*
X109713894Y-74181341D01*
X109629686Y-74055314D01*
X109503659Y-73971106D01*
X109355000Y-73941536D01*
X108155000Y-73941536D01*
X108006341Y-73971106D01*
X107880314Y-74055314D01*
X107796106Y-74181341D01*
X107766536Y-74330000D01*
X107766536Y-75530000D01*
X107796106Y-75678659D01*
X107880314Y-75804686D01*
X108006341Y-75888894D01*
X108127801Y-75913054D01*
X108127800Y-77187986D01*
X107935000Y-77187986D01*
X107786341Y-77217556D01*
X107660314Y-77301764D01*
X107576106Y-77427791D01*
X107546536Y-77576450D01*
X107546536Y-78276450D01*
X107576106Y-78425109D01*
X107660314Y-78551136D01*
X107786341Y-78635344D01*
X107935000Y-78664914D01*
X109235000Y-78664914D01*
X109351236Y-78641793D01*
X108905044Y-79087986D01*
X107935000Y-79087986D01*
X107786341Y-79117556D01*
X107660314Y-79201764D01*
X107576106Y-79327791D01*
X107546536Y-79476450D01*
X107546536Y-80176450D01*
X107576106Y-80325109D01*
X107660314Y-80451136D01*
X107786341Y-80535344D01*
X107935000Y-80564914D01*
X108890494Y-80564914D01*
X109637594Y-81312014D01*
X109491341Y-81341106D01*
X109365314Y-81425314D01*
X109281106Y-81551341D01*
X109251536Y-81700000D01*
X109251536Y-83058000D01*
X108002606Y-83058000D01*
X107746262Y-82801656D01*
X108029554Y-82919000D01*
X108378446Y-82919000D01*
X108700780Y-82785484D01*
X108947484Y-82538780D01*
X109081000Y-82216446D01*
X109081000Y-81867554D01*
X108947484Y-81545220D01*
X108700780Y-81298516D01*
X108378446Y-81165000D01*
X108029554Y-81165000D01*
X107707220Y-81298516D01*
X107460516Y-81545220D01*
X107442000Y-81589921D01*
X107442000Y-70795574D01*
X107589000Y-70795574D01*
X107589000Y-71444426D01*
X107837305Y-72043887D01*
X108296113Y-72502695D01*
X108895574Y-72751000D01*
X109544426Y-72751000D01*
X110143887Y-72502695D01*
X110602695Y-72043887D01*
X110851000Y-71444426D01*
X110851000Y-70795574D01*
X110602695Y-70196113D01*
X110143887Y-69737305D01*
X109544426Y-69489000D01*
X108895574Y-69489000D01*
X108296113Y-69737305D01*
X107837305Y-70196113D01*
X107589000Y-70795574D01*
X107442000Y-70795574D01*
X107442000Y-70537606D01*
X108637606Y-69342000D01*
X111791536Y-69342000D01*
X111791536Y-70700000D01*
G36*
X123698000Y-70537606D02*
X123698000Y-77171425D01*
X123564699Y-77038123D01*
X123331310Y-76941450D01*
X122840750Y-76941450D01*
X122682000Y-77100200D01*
X122682000Y-77799450D01*
X122702000Y-77799450D01*
X122702000Y-78053450D01*
X122682000Y-78053450D01*
X122682000Y-78752700D01*
X122840750Y-78911450D01*
X123331310Y-78911450D01*
X123564699Y-78814777D01*
X123698000Y-78681475D01*
X123698000Y-82497394D01*
X123137394Y-83058000D01*
X121791075Y-83058000D01*
X121809576Y-83030312D01*
X121905116Y-82550000D01*
X121809576Y-82069688D01*
X121797256Y-82051250D01*
X121829622Y-82029624D01*
X121855131Y-81991447D01*
X122846449Y-81000130D01*
X122884623Y-80974623D01*
X122985673Y-80823391D01*
X123012200Y-80690030D01*
X123012200Y-80690029D01*
X123021157Y-80645000D01*
X123012200Y-80599970D01*
X123012200Y-80564914D01*
X123205000Y-80564914D01*
X123353659Y-80535344D01*
X123479686Y-80451136D01*
X123563894Y-80325109D01*
X123593464Y-80176450D01*
X123593464Y-79476450D01*
X123563894Y-79327791D01*
X123479686Y-79201764D01*
X123353659Y-79117556D01*
X123205000Y-79087986D01*
X121957199Y-79087986D01*
X121957199Y-78911450D01*
X122269250Y-78911450D01*
X122428000Y-78752700D01*
X122428000Y-78053450D01*
X122408000Y-78053450D01*
X122408000Y-77799450D01*
X122428000Y-77799450D01*
X122428000Y-77100200D01*
X122269250Y-76941450D01*
X121957199Y-76941450D01*
X121957199Y-76460029D01*
X121966156Y-76414999D01*
X121930672Y-76236608D01*
X121855129Y-76123550D01*
X121829622Y-76085376D01*
X121791448Y-76059869D01*
X120065132Y-74333554D01*
X120039623Y-74295377D01*
X119888391Y-74194327D01*
X119755030Y-74167800D01*
X119710000Y-74158843D01*
X119664970Y-74167800D01*
X117796178Y-74167800D01*
X118401449Y-73562530D01*
X118439623Y-73537023D01*
X118540673Y-73385791D01*
X118567200Y-73252430D01*
X118567200Y-73252429D01*
X118576157Y-73207401D01*
X118567200Y-73162371D01*
X118567200Y-71014173D01*
X118590312Y-71009576D01*
X118910588Y-70795574D01*
X120289000Y-70795574D01*
X120289000Y-71444426D01*
X120537305Y-72043887D01*
X120996113Y-72502695D01*
X121595574Y-72751000D01*
X122244426Y-72751000D01*
X122843887Y-72502695D01*
X123302695Y-72043887D01*
X123551000Y-71444426D01*
X123551000Y-70795574D01*
X123302695Y-70196113D01*
X122843887Y-69737305D01*
X122244426Y-69489000D01*
X121595574Y-69489000D01*
X120996113Y-69737305D01*
X120537305Y-70196113D01*
X120289000Y-70795574D01*
X118910588Y-70795574D01*
X118997501Y-70737501D01*
X119269576Y-70330312D01*
X119365116Y-69850000D01*
X119269576Y-69369688D01*
X119251075Y-69342000D01*
X122502394Y-69342000D01*
X123698000Y-70537606D01*
X123698000Y-70537606D01*
G37*
X123698000Y-70537606D02*
X123698000Y-77171425D01*
X123564699Y-77038123D01*
X123331310Y-76941450D01*
X122840750Y-76941450D01*
X122682000Y-77100200D01*
X122682000Y-77799450D01*
X122702000Y-77799450D01*
X122702000Y-78053450D01*
X122682000Y-78053450D01*
X122682000Y-78752700D01*
X122840750Y-78911450D01*
X123331310Y-78911450D01*
X123564699Y-78814777D01*
X123698000Y-78681475D01*
X123698000Y-82497394D01*
X123137394Y-83058000D01*
X121791075Y-83058000D01*
X121809576Y-83030312D01*
X121905116Y-82550000D01*
X121809576Y-82069688D01*
X121797256Y-82051250D01*
X121829622Y-82029624D01*
X121855131Y-81991447D01*
X122846449Y-81000130D01*
X122884623Y-80974623D01*
X122985673Y-80823391D01*
X123012200Y-80690030D01*
X123012200Y-80690029D01*
X123021157Y-80645000D01*
X123012200Y-80599970D01*
X123012200Y-80564914D01*
X123205000Y-80564914D01*
X123353659Y-80535344D01*
X123479686Y-80451136D01*
X123563894Y-80325109D01*
X123593464Y-80176450D01*
X123593464Y-79476450D01*
X123563894Y-79327791D01*
X123479686Y-79201764D01*
X123353659Y-79117556D01*
X123205000Y-79087986D01*
X121957199Y-79087986D01*
X121957199Y-78911450D01*
X122269250Y-78911450D01*
X122428000Y-78752700D01*
X122428000Y-78053450D01*
X122408000Y-78053450D01*
X122408000Y-77799450D01*
X122428000Y-77799450D01*
X122428000Y-77100200D01*
X122269250Y-76941450D01*
X121957199Y-76941450D01*
X121957199Y-76460029D01*
X121966156Y-76414999D01*
X121930672Y-76236608D01*
X121855129Y-76123550D01*
X121829622Y-76085376D01*
X121791448Y-76059869D01*
X120065132Y-74333554D01*
X120039623Y-74295377D01*
X119888391Y-74194327D01*
X119755030Y-74167800D01*
X119710000Y-74158843D01*
X119664970Y-74167800D01*
X117796178Y-74167800D01*
X118401449Y-73562530D01*
X118439623Y-73537023D01*
X118540673Y-73385791D01*
X118567200Y-73252430D01*
X118567200Y-73252429D01*
X118576157Y-73207401D01*
X118567200Y-73162371D01*
X118567200Y-71014173D01*
X118590312Y-71009576D01*
X118910588Y-70795574D01*
X120289000Y-70795574D01*
X120289000Y-71444426D01*
X120537305Y-72043887D01*
X120996113Y-72502695D01*
X121595574Y-72751000D01*
X122244426Y-72751000D01*
X122843887Y-72502695D01*
X123302695Y-72043887D01*
X123551000Y-71444426D01*
X123551000Y-70795574D01*
X123302695Y-70196113D01*
X122843887Y-69737305D01*
X122244426Y-69489000D01*
X121595574Y-69489000D01*
X120996113Y-69737305D01*
X120537305Y-70196113D01*
X120289000Y-70795574D01*
X118910588Y-70795574D01*
X118997501Y-70737501D01*
X119269576Y-70330312D01*
X119365116Y-69850000D01*
X119269576Y-69369688D01*
X119251075Y-69342000D01*
X122502394Y-69342000D01*
X123698000Y-70537606D01*
G36*
X116950424Y-69369688D02*
X116854884Y-69850000D01*
X116950424Y-70330312D01*
X117222499Y-70737501D01*
X117629688Y-71009576D01*
X117652800Y-71014173D01*
X117652800Y-71097110D01*
X117652801Y-71097115D01*
X117652800Y-73018021D01*
X117583048Y-73087773D01*
X117558894Y-72966341D01*
X117474686Y-72840314D01*
X117348659Y-72756106D01*
X117200000Y-72726536D01*
X117127200Y-72726536D01*
X117127200Y-72364549D01*
X117326693Y-72165056D01*
X117436900Y-71898993D01*
X117436900Y-71611007D01*
X117326693Y-71344944D01*
X117123056Y-71141307D01*
X116856993Y-71031100D01*
X116569007Y-71031100D01*
X116302944Y-71141307D01*
X116099307Y-71344944D01*
X115989100Y-71611007D01*
X115989100Y-71898993D01*
X116099307Y-72165056D01*
X116212801Y-72278550D01*
X116212800Y-72726536D01*
X116140000Y-72726536D01*
X115991341Y-72756106D01*
X115865314Y-72840314D01*
X115781106Y-72966341D01*
X115751536Y-73115000D01*
X115751536Y-73515000D01*
X115776400Y-73640000D01*
X115751536Y-73765000D01*
X115751536Y-74165000D01*
X115777395Y-74295000D01*
X115751536Y-74425000D01*
X115751536Y-74825000D01*
X115776400Y-74950000D01*
X115751536Y-75075000D01*
X115751536Y-75475000D01*
X115781106Y-75623659D01*
X115865314Y-75749686D01*
X115991341Y-75833894D01*
X116140000Y-75863464D01*
X116277864Y-75863464D01*
X116314870Y-75918848D01*
X116340378Y-75957023D01*
X116378552Y-75982530D01*
X116760468Y-76364446D01*
X116785977Y-76402623D01*
X116937209Y-76503673D01*
X117115600Y-76539157D01*
X117160630Y-76530200D01*
X117543451Y-76530200D01*
X117699944Y-76686693D01*
X117966007Y-76796900D01*
X118253993Y-76796900D01*
X118520056Y-76686693D01*
X118723693Y-76483056D01*
X118833900Y-76216993D01*
X118833900Y-75929007D01*
X118723693Y-75662944D01*
X118520056Y-75459307D01*
X118253993Y-75349100D01*
X117966007Y-75349100D01*
X117699944Y-75459307D01*
X117564680Y-75594571D01*
X117588464Y-75475000D01*
X117588464Y-75082200D01*
X119520622Y-75082200D01*
X121042800Y-76604379D01*
X121042799Y-81373017D01*
X120771239Y-81319000D01*
X120528761Y-81319000D01*
X120169688Y-81390424D01*
X119762499Y-81662499D01*
X119490424Y-82069688D01*
X119394884Y-82550000D01*
X119490424Y-83030312D01*
X119508925Y-83058000D01*
X119251075Y-83058000D01*
X119269576Y-83030312D01*
X119365116Y-82550000D01*
X119269576Y-82069688D01*
X119256484Y-82050094D01*
X120028446Y-81278132D01*
X120066623Y-81252623D01*
X120167673Y-81101391D01*
X120194200Y-80968030D01*
X120194200Y-80968026D01*
X120203156Y-80923001D01*
X120194200Y-80877976D01*
X120194200Y-80564914D01*
X120387000Y-80564914D01*
X120535659Y-80535344D01*
X120661686Y-80451136D01*
X120745894Y-80325109D01*
X120775464Y-80176450D01*
X120775464Y-79476450D01*
X120745894Y-79327791D01*
X120661686Y-79201764D01*
X120535659Y-79117556D01*
X120387000Y-79087986D01*
X119087000Y-79087986D01*
X118938341Y-79117556D01*
X118812314Y-79201764D01*
X118728106Y-79327791D01*
X118698536Y-79476450D01*
X118698536Y-80176450D01*
X118728106Y-80325109D01*
X118812314Y-80451136D01*
X118938341Y-80535344D01*
X119087000Y-80564914D01*
X119279800Y-80564914D01*
X119279800Y-80733622D01*
X118609906Y-81403516D01*
X118590312Y-81390424D01*
X118231239Y-81319000D01*
X117988761Y-81319000D01*
X117629688Y-81390424D01*
X117222499Y-81662499D01*
X116950424Y-82069688D01*
X116854884Y-82550000D01*
X116950424Y-83030312D01*
X116968925Y-83058000D01*
X116711075Y-83058000D01*
X116729576Y-83030312D01*
X116825116Y-82550000D01*
X116729576Y-82069688D01*
X116716484Y-82050095D01*
X117210449Y-81556130D01*
X117248623Y-81530623D01*
X117349673Y-81379391D01*
X117357288Y-81341106D01*
X117385157Y-81201001D01*
X117376200Y-81155971D01*
X117376200Y-80564914D01*
X117569000Y-80564914D01*
X117717659Y-80535344D01*
X117843686Y-80451136D01*
X117927894Y-80325109D01*
X117957464Y-80176450D01*
X117957464Y-79476450D01*
X117927894Y-79327791D01*
X117843686Y-79201764D01*
X117717659Y-79117556D01*
X117569000Y-79087986D01*
X116269000Y-79087986D01*
X116120341Y-79117556D01*
X115994314Y-79201764D01*
X115910106Y-79327791D01*
X115880536Y-79476450D01*
X115880536Y-80176450D01*
X115910106Y-80325109D01*
X115994314Y-80451136D01*
X116120341Y-80535344D01*
X116269000Y-80564914D01*
X116461800Y-80564914D01*
X116461800Y-81011621D01*
X116069905Y-81403516D01*
X116050312Y-81390424D01*
X115691239Y-81319000D01*
X115448761Y-81319000D01*
X115089688Y-81390424D01*
X114682499Y-81662499D01*
X114412245Y-82066963D01*
X114225183Y-81668642D01*
X113796924Y-81278355D01*
X113386890Y-81108524D01*
X113157000Y-81229845D01*
X113157000Y-82423000D01*
X113177000Y-82423000D01*
X113177000Y-82677000D01*
X113157000Y-82677000D01*
X113157000Y-82697000D01*
X112903000Y-82697000D01*
X112903000Y-82677000D01*
X112883000Y-82677000D01*
X112883000Y-82423000D01*
X112903000Y-82423000D01*
X112903000Y-81229845D01*
X112673110Y-81108524D01*
X112263076Y-81278355D01*
X111834817Y-81668642D01*
X111728464Y-81895105D01*
X111728464Y-81700000D01*
X111698894Y-81551341D01*
X111614686Y-81425314D01*
X111488659Y-81341106D01*
X111340000Y-81311536D01*
X110981205Y-81311536D01*
X110968525Y-81247788D01*
X110856247Y-81079753D01*
X110813832Y-81051412D01*
X110540056Y-80777636D01*
X110621690Y-80811450D01*
X111087250Y-80811450D01*
X111246000Y-80652700D01*
X111246000Y-79803450D01*
X111500000Y-79803450D01*
X111500000Y-80652700D01*
X111658750Y-80811450D01*
X112124310Y-80811450D01*
X112357699Y-80714777D01*
X112536327Y-80536148D01*
X112633000Y-80302759D01*
X112633000Y-79962200D01*
X112871000Y-79962200D01*
X112871000Y-80302759D01*
X112967673Y-80536148D01*
X113146301Y-80714777D01*
X113379690Y-80811450D01*
X113845250Y-80811450D01*
X114004000Y-80652700D01*
X114004000Y-79803450D01*
X114258000Y-79803450D01*
X114258000Y-80652700D01*
X114416750Y-80811450D01*
X114882310Y-80811450D01*
X115115699Y-80714777D01*
X115294327Y-80536148D01*
X115391000Y-80302759D01*
X115391000Y-79962200D01*
X115232250Y-79803450D01*
X114258000Y-79803450D01*
X114004000Y-79803450D01*
X113029750Y-79803450D01*
X112871000Y-79962200D01*
X112633000Y-79962200D01*
X112474250Y-79803450D01*
X111500000Y-79803450D01*
X111246000Y-79803450D01*
X110271750Y-79803450D01*
X110113000Y-79962200D01*
X110113000Y-80302759D01*
X110146815Y-80384395D01*
X109623464Y-79861044D01*
X109623464Y-79806406D01*
X110113000Y-79316870D01*
X110113000Y-79390700D01*
X110271750Y-79549450D01*
X111246000Y-79549450D01*
X111246000Y-79529450D01*
X111500000Y-79529450D01*
X111500000Y-79549450D01*
X112474250Y-79549450D01*
X112633000Y-79390700D01*
X112633000Y-79050141D01*
X112536327Y-78816752D01*
X112357699Y-78638123D01*
X112124310Y-78541450D01*
X112115962Y-78541450D01*
X112146659Y-78535344D01*
X112272686Y-78451136D01*
X112356894Y-78325109D01*
X112384873Y-78184450D01*
X113119127Y-78184450D01*
X113147106Y-78325109D01*
X113231314Y-78451136D01*
X113357341Y-78535344D01*
X113388038Y-78541450D01*
X113379690Y-78541450D01*
X113146301Y-78638123D01*
X112967673Y-78816752D01*
X112871000Y-79050141D01*
X112871000Y-79390700D01*
X113029750Y-79549450D01*
X114004000Y-79549450D01*
X114004000Y-79529450D01*
X114258000Y-79529450D01*
X114258000Y-79549450D01*
X115232250Y-79549450D01*
X115391000Y-79390700D01*
X115391000Y-79050141D01*
X115294327Y-78816752D01*
X115115699Y-78638123D01*
X114882310Y-78541450D01*
X114873962Y-78541450D01*
X114904659Y-78535344D01*
X115030686Y-78451136D01*
X115114894Y-78325109D01*
X115142873Y-78184450D01*
X115880536Y-78184450D01*
X115880536Y-78276450D01*
X115910106Y-78425109D01*
X115994314Y-78551136D01*
X116120341Y-78635344D01*
X116269000Y-78664914D01*
X117569000Y-78664914D01*
X117717659Y-78635344D01*
X117843686Y-78551136D01*
X117921653Y-78434450D01*
X118734347Y-78434450D01*
X118812314Y-78551136D01*
X118938341Y-78635344D01*
X119087000Y-78664914D01*
X120387000Y-78664914D01*
X120535659Y-78635344D01*
X120661686Y-78551136D01*
X120745894Y-78425109D01*
X120775464Y-78276450D01*
X120775464Y-77576450D01*
X120745894Y-77427791D01*
X120661686Y-77301764D01*
X120535659Y-77217556D01*
X120387000Y-77187986D01*
X119087000Y-77187986D01*
X118938341Y-77217556D01*
X118812314Y-77301764D01*
X118734347Y-77418450D01*
X117921653Y-77418450D01*
X117843686Y-77301764D01*
X117717659Y-77217556D01*
X117569000Y-77187986D01*
X116817246Y-77187986D01*
X116719032Y-77168450D01*
X116719028Y-77168450D01*
X116669000Y-77158499D01*
X116618972Y-77168450D01*
X115142873Y-77168450D01*
X115114894Y-77027791D01*
X115030686Y-76901764D01*
X114904659Y-76817556D01*
X114756000Y-76787986D01*
X113506000Y-76787986D01*
X113357341Y-76817556D01*
X113231314Y-76901764D01*
X113147106Y-77027791D01*
X113119127Y-77168450D01*
X112703903Y-77168450D01*
X112746525Y-77104662D01*
X112776000Y-76956482D01*
X112776000Y-76956479D01*
X112785951Y-76906451D01*
X112776000Y-76856423D01*
X112776000Y-76751334D01*
X112886007Y-76796900D01*
X113173993Y-76796900D01*
X113440056Y-76686693D01*
X113596549Y-76530200D01*
X113979370Y-76530200D01*
X114024400Y-76539157D01*
X114069430Y-76530200D01*
X114202791Y-76503673D01*
X114354023Y-76402623D01*
X114379532Y-76364446D01*
X114761446Y-75982532D01*
X114799623Y-75957023D01*
X114862137Y-75863464D01*
X115000000Y-75863464D01*
X115148659Y-75833894D01*
X115274686Y-75749686D01*
X115358894Y-75623659D01*
X115388464Y-75475000D01*
X115388464Y-75334561D01*
X115538327Y-75184699D01*
X115635000Y-74951310D01*
X115635000Y-74883750D01*
X115476250Y-74725000D01*
X115161970Y-74725000D01*
X115148659Y-74716106D01*
X115000000Y-74686536D01*
X114323000Y-74686536D01*
X114323000Y-74553464D01*
X115000000Y-74553464D01*
X115143099Y-74525000D01*
X115476250Y-74525000D01*
X115635000Y-74366250D01*
X115635000Y-74298690D01*
X115538327Y-74065301D01*
X115388464Y-73915439D01*
X115388464Y-73765000D01*
X115363600Y-73640000D01*
X115388464Y-73515000D01*
X115388464Y-73115000D01*
X115358894Y-72966341D01*
X115274686Y-72840314D01*
X115148659Y-72756106D01*
X115000000Y-72726536D01*
X114927200Y-72726536D01*
X114927200Y-71139378D01*
X115070094Y-70996484D01*
X115089688Y-71009576D01*
X115448761Y-71081000D01*
X115691239Y-71081000D01*
X116050312Y-71009576D01*
X116457501Y-70737501D01*
X116729576Y-70330312D01*
X116825116Y-69850000D01*
X116729576Y-69369688D01*
X116711075Y-69342000D01*
X116968925Y-69342000D01*
X116950424Y-69369688D01*
X116950424Y-69369688D01*
G37*
X116950424Y-69369688D02*
X116854884Y-69850000D01*
X116950424Y-70330312D01*
X117222499Y-70737501D01*
X117629688Y-71009576D01*
X117652800Y-71014173D01*
X117652800Y-71097110D01*
X117652801Y-71097115D01*
X117652800Y-73018021D01*
X117583048Y-73087773D01*
X117558894Y-72966341D01*
X117474686Y-72840314D01*
X117348659Y-72756106D01*
X117200000Y-72726536D01*
X117127200Y-72726536D01*
X117127200Y-72364549D01*
X117326693Y-72165056D01*
X117436900Y-71898993D01*
X117436900Y-71611007D01*
X117326693Y-71344944D01*
X117123056Y-71141307D01*
X116856993Y-71031100D01*
X116569007Y-71031100D01*
X116302944Y-71141307D01*
X116099307Y-71344944D01*
X115989100Y-71611007D01*
X115989100Y-71898993D01*
X116099307Y-72165056D01*
X116212801Y-72278550D01*
X116212800Y-72726536D01*
X116140000Y-72726536D01*
X115991341Y-72756106D01*
X115865314Y-72840314D01*
X115781106Y-72966341D01*
X115751536Y-73115000D01*
X115751536Y-73515000D01*
X115776400Y-73640000D01*
X115751536Y-73765000D01*
X115751536Y-74165000D01*
X115777395Y-74295000D01*
X115751536Y-74425000D01*
X115751536Y-74825000D01*
X115776400Y-74950000D01*
X115751536Y-75075000D01*
X115751536Y-75475000D01*
X115781106Y-75623659D01*
X115865314Y-75749686D01*
X115991341Y-75833894D01*
X116140000Y-75863464D01*
X116277864Y-75863464D01*
X116314870Y-75918848D01*
X116340378Y-75957023D01*
X116378552Y-75982530D01*
X116760468Y-76364446D01*
X116785977Y-76402623D01*
X116937209Y-76503673D01*
X117115600Y-76539157D01*
X117160630Y-76530200D01*
X117543451Y-76530200D01*
X117699944Y-76686693D01*
X117966007Y-76796900D01*
X118253993Y-76796900D01*
X118520056Y-76686693D01*
X118723693Y-76483056D01*
X118833900Y-76216993D01*
X118833900Y-75929007D01*
X118723693Y-75662944D01*
X118520056Y-75459307D01*
X118253993Y-75349100D01*
X117966007Y-75349100D01*
X117699944Y-75459307D01*
X117564680Y-75594571D01*
X117588464Y-75475000D01*
X117588464Y-75082200D01*
X119520622Y-75082200D01*
X121042800Y-76604379D01*
X121042799Y-81373017D01*
X120771239Y-81319000D01*
X120528761Y-81319000D01*
X120169688Y-81390424D01*
X119762499Y-81662499D01*
X119490424Y-82069688D01*
X119394884Y-82550000D01*
X119490424Y-83030312D01*
X119508925Y-83058000D01*
X119251075Y-83058000D01*
X119269576Y-83030312D01*
X119365116Y-82550000D01*
X119269576Y-82069688D01*
X119256484Y-82050094D01*
X120028446Y-81278132D01*
X120066623Y-81252623D01*
X120167673Y-81101391D01*
X120194200Y-80968030D01*
X120194200Y-80968026D01*
X120203156Y-80923001D01*
X120194200Y-80877976D01*
X120194200Y-80564914D01*
X120387000Y-80564914D01*
X120535659Y-80535344D01*
X120661686Y-80451136D01*
X120745894Y-80325109D01*
X120775464Y-80176450D01*
X120775464Y-79476450D01*
X120745894Y-79327791D01*
X120661686Y-79201764D01*
X120535659Y-79117556D01*
X120387000Y-79087986D01*
X119087000Y-79087986D01*
X118938341Y-79117556D01*
X118812314Y-79201764D01*
X118728106Y-79327791D01*
X118698536Y-79476450D01*
X118698536Y-80176450D01*
X118728106Y-80325109D01*
X118812314Y-80451136D01*
X118938341Y-80535344D01*
X119087000Y-80564914D01*
X119279800Y-80564914D01*
X119279800Y-80733622D01*
X118609906Y-81403516D01*
X118590312Y-81390424D01*
X118231239Y-81319000D01*
X117988761Y-81319000D01*
X117629688Y-81390424D01*
X117222499Y-81662499D01*
X116950424Y-82069688D01*
X116854884Y-82550000D01*
X116950424Y-83030312D01*
X116968925Y-83058000D01*
X116711075Y-83058000D01*
X116729576Y-83030312D01*
X116825116Y-82550000D01*
X116729576Y-82069688D01*
X116716484Y-82050095D01*
X117210449Y-81556130D01*
X117248623Y-81530623D01*
X117349673Y-81379391D01*
X117357288Y-81341106D01*
X117385157Y-81201001D01*
X117376200Y-81155971D01*
X117376200Y-80564914D01*
X117569000Y-80564914D01*
X117717659Y-80535344D01*
X117843686Y-80451136D01*
X117927894Y-80325109D01*
X117957464Y-80176450D01*
X117957464Y-79476450D01*
X117927894Y-79327791D01*
X117843686Y-79201764D01*
X117717659Y-79117556D01*
X117569000Y-79087986D01*
X116269000Y-79087986D01*
X116120341Y-79117556D01*
X115994314Y-79201764D01*
X115910106Y-79327791D01*
X115880536Y-79476450D01*
X115880536Y-80176450D01*
X115910106Y-80325109D01*
X115994314Y-80451136D01*
X116120341Y-80535344D01*
X116269000Y-80564914D01*
X116461800Y-80564914D01*
X116461800Y-81011621D01*
X116069905Y-81403516D01*
X116050312Y-81390424D01*
X115691239Y-81319000D01*
X115448761Y-81319000D01*
X115089688Y-81390424D01*
X114682499Y-81662499D01*
X114412245Y-82066963D01*
X114225183Y-81668642D01*
X113796924Y-81278355D01*
X113386890Y-81108524D01*
X113157000Y-81229845D01*
X113157000Y-82423000D01*
X113177000Y-82423000D01*
X113177000Y-82677000D01*
X113157000Y-82677000D01*
X113157000Y-82697000D01*
X112903000Y-82697000D01*
X112903000Y-82677000D01*
X112883000Y-82677000D01*
X112883000Y-82423000D01*
X112903000Y-82423000D01*
X112903000Y-81229845D01*
X112673110Y-81108524D01*
X112263076Y-81278355D01*
X111834817Y-81668642D01*
X111728464Y-81895105D01*
X111728464Y-81700000D01*
X111698894Y-81551341D01*
X111614686Y-81425314D01*
X111488659Y-81341106D01*
X111340000Y-81311536D01*
X110981205Y-81311536D01*
X110968525Y-81247788D01*
X110856247Y-81079753D01*
X110813832Y-81051412D01*
X110540056Y-80777636D01*
X110621690Y-80811450D01*
X111087250Y-80811450D01*
X111246000Y-80652700D01*
X111246000Y-79803450D01*
X111500000Y-79803450D01*
X111500000Y-80652700D01*
X111658750Y-80811450D01*
X112124310Y-80811450D01*
X112357699Y-80714777D01*
X112536327Y-80536148D01*
X112633000Y-80302759D01*
X112633000Y-79962200D01*
X112871000Y-79962200D01*
X112871000Y-80302759D01*
X112967673Y-80536148D01*
X113146301Y-80714777D01*
X113379690Y-80811450D01*
X113845250Y-80811450D01*
X114004000Y-80652700D01*
X114004000Y-79803450D01*
X114258000Y-79803450D01*
X114258000Y-80652700D01*
X114416750Y-80811450D01*
X114882310Y-80811450D01*
X115115699Y-80714777D01*
X115294327Y-80536148D01*
X115391000Y-80302759D01*
X115391000Y-79962200D01*
X115232250Y-79803450D01*
X114258000Y-79803450D01*
X114004000Y-79803450D01*
X113029750Y-79803450D01*
X112871000Y-79962200D01*
X112633000Y-79962200D01*
X112474250Y-79803450D01*
X111500000Y-79803450D01*
X111246000Y-79803450D01*
X110271750Y-79803450D01*
X110113000Y-79962200D01*
X110113000Y-80302759D01*
X110146815Y-80384395D01*
X109623464Y-79861044D01*
X109623464Y-79806406D01*
X110113000Y-79316870D01*
X110113000Y-79390700D01*
X110271750Y-79549450D01*
X111246000Y-79549450D01*
X111246000Y-79529450D01*
X111500000Y-79529450D01*
X111500000Y-79549450D01*
X112474250Y-79549450D01*
X112633000Y-79390700D01*
X112633000Y-79050141D01*
X112536327Y-78816752D01*
X112357699Y-78638123D01*
X112124310Y-78541450D01*
X112115962Y-78541450D01*
X112146659Y-78535344D01*
X112272686Y-78451136D01*
X112356894Y-78325109D01*
X112384873Y-78184450D01*
X113119127Y-78184450D01*
X113147106Y-78325109D01*
X113231314Y-78451136D01*
X113357341Y-78535344D01*
X113388038Y-78541450D01*
X113379690Y-78541450D01*
X113146301Y-78638123D01*
X112967673Y-78816752D01*
X112871000Y-79050141D01*
X112871000Y-79390700D01*
X113029750Y-79549450D01*
X114004000Y-79549450D01*
X114004000Y-79529450D01*
X114258000Y-79529450D01*
X114258000Y-79549450D01*
X115232250Y-79549450D01*
X115391000Y-79390700D01*
X115391000Y-79050141D01*
X115294327Y-78816752D01*
X115115699Y-78638123D01*
X114882310Y-78541450D01*
X114873962Y-78541450D01*
X114904659Y-78535344D01*
X115030686Y-78451136D01*
X115114894Y-78325109D01*
X115142873Y-78184450D01*
X115880536Y-78184450D01*
X115880536Y-78276450D01*
X115910106Y-78425109D01*
X115994314Y-78551136D01*
X116120341Y-78635344D01*
X116269000Y-78664914D01*
X117569000Y-78664914D01*
X117717659Y-78635344D01*
X117843686Y-78551136D01*
X117921653Y-78434450D01*
X118734347Y-78434450D01*
X118812314Y-78551136D01*
X118938341Y-78635344D01*
X119087000Y-78664914D01*
X120387000Y-78664914D01*
X120535659Y-78635344D01*
X120661686Y-78551136D01*
X120745894Y-78425109D01*
X120775464Y-78276450D01*
X120775464Y-77576450D01*
X120745894Y-77427791D01*
X120661686Y-77301764D01*
X120535659Y-77217556D01*
X120387000Y-77187986D01*
X119087000Y-77187986D01*
X118938341Y-77217556D01*
X118812314Y-77301764D01*
X118734347Y-77418450D01*
X117921653Y-77418450D01*
X117843686Y-77301764D01*
X117717659Y-77217556D01*
X117569000Y-77187986D01*
X116817246Y-77187986D01*
X116719032Y-77168450D01*
X116719028Y-77168450D01*
X116669000Y-77158499D01*
X116618972Y-77168450D01*
X115142873Y-77168450D01*
X115114894Y-77027791D01*
X115030686Y-76901764D01*
X114904659Y-76817556D01*
X114756000Y-76787986D01*
X113506000Y-76787986D01*
X113357341Y-76817556D01*
X113231314Y-76901764D01*
X113147106Y-77027791D01*
X113119127Y-77168450D01*
X112703903Y-77168450D01*
X112746525Y-77104662D01*
X112776000Y-76956482D01*
X112776000Y-76956479D01*
X112785951Y-76906451D01*
X112776000Y-76856423D01*
X112776000Y-76751334D01*
X112886007Y-76796900D01*
X113173993Y-76796900D01*
X113440056Y-76686693D01*
X113596549Y-76530200D01*
X113979370Y-76530200D01*
X114024400Y-76539157D01*
X114069430Y-76530200D01*
X114202791Y-76503673D01*
X114354023Y-76402623D01*
X114379532Y-76364446D01*
X114761446Y-75982532D01*
X114799623Y-75957023D01*
X114862137Y-75863464D01*
X115000000Y-75863464D01*
X115148659Y-75833894D01*
X115274686Y-75749686D01*
X115358894Y-75623659D01*
X115388464Y-75475000D01*
X115388464Y-75334561D01*
X115538327Y-75184699D01*
X115635000Y-74951310D01*
X115635000Y-74883750D01*
X115476250Y-74725000D01*
X115161970Y-74725000D01*
X115148659Y-74716106D01*
X115000000Y-74686536D01*
X114323000Y-74686536D01*
X114323000Y-74553464D01*
X115000000Y-74553464D01*
X115143099Y-74525000D01*
X115476250Y-74525000D01*
X115635000Y-74366250D01*
X115635000Y-74298690D01*
X115538327Y-74065301D01*
X115388464Y-73915439D01*
X115388464Y-73765000D01*
X115363600Y-73640000D01*
X115388464Y-73515000D01*
X115388464Y-73115000D01*
X115358894Y-72966341D01*
X115274686Y-72840314D01*
X115148659Y-72756106D01*
X115000000Y-72726536D01*
X114927200Y-72726536D01*
X114927200Y-71139378D01*
X115070094Y-70996484D01*
X115089688Y-71009576D01*
X115448761Y-71081000D01*
X115691239Y-71081000D01*
X116050312Y-71009576D01*
X116457501Y-70737501D01*
X116729576Y-70330312D01*
X116825116Y-69850000D01*
X116729576Y-69369688D01*
X116711075Y-69342000D01*
X116968925Y-69342000D01*
X116950424Y-69369688D01*
M02*
