G04 #@! TF.GenerationSoftware,KiCad,Pcbnew,(5.0.0-rc2-dev-444-g2974a2c10)*
G04 #@! TF.CreationDate,2019-08-03T11:43:22-07:00*
G04 #@! TF.ProjectId,AD5245_breakout,4144353234355F627265616B6F75742E,v01*
G04 #@! TF.SameCoordinates,Original*
G04 #@! TF.FileFunction,Legend,Top*
G04 #@! TF.FilePolarity,Positive*
%FSLAX46Y46*%
G04 Gerber Fmt 4.6, Leading zero omitted, Abs format (unit mm)*
G04 Created by KiCad (PCBNEW (5.0.0-rc2-dev-444-g2974a2c10)) date 08/03/19 11:43:22*
%MOMM*%
%LPD*%
G01*
G04 APERTURE LIST*
%ADD10C,0.100000*%
%ADD11C,0.120000*%
%ADD12C,0.080000*%
G04 APERTURE END LIST*
D10*
X112941952Y-71457333D02*
X113194333Y-71457333D01*
X112891476Y-71600190D02*
X113068142Y-71100190D01*
X113244809Y-71600190D01*
X115390047Y-71100190D02*
X115516238Y-71600190D01*
X115617190Y-71243047D01*
X115718142Y-71600190D01*
X115844333Y-71100190D01*
X118241952Y-71338285D02*
X118317666Y-71362095D01*
X118342904Y-71385904D01*
X118368142Y-71433523D01*
X118368142Y-71504952D01*
X118342904Y-71552571D01*
X118317666Y-71576380D01*
X118267190Y-71600190D01*
X118065285Y-71600190D01*
X118065285Y-71100190D01*
X118241952Y-71100190D01*
X118292428Y-71124000D01*
X118317666Y-71147809D01*
X118342904Y-71195428D01*
X118342904Y-71243047D01*
X118317666Y-71290666D01*
X118292428Y-71314476D01*
X118241952Y-71338285D01*
X118065285Y-71338285D01*
X109840619Y-80752190D02*
X110007285Y-81252190D01*
X110173952Y-80752190D01*
X110340619Y-81252190D02*
X110340619Y-80752190D01*
X110459666Y-80752190D01*
X110531095Y-80776000D01*
X110578714Y-80823619D01*
X110602523Y-80871238D01*
X110626333Y-80966476D01*
X110626333Y-81037904D01*
X110602523Y-81133142D01*
X110578714Y-81180761D01*
X110531095Y-81228380D01*
X110459666Y-81252190D01*
X110340619Y-81252190D01*
X110840619Y-81252190D02*
X110840619Y-80752190D01*
X110959666Y-80752190D01*
X111031095Y-80776000D01*
X111078714Y-80823619D01*
X111102523Y-80871238D01*
X111126333Y-80966476D01*
X111126333Y-81037904D01*
X111102523Y-81133142D01*
X111078714Y-81180761D01*
X111031095Y-81228380D01*
X110959666Y-81252190D01*
X110840619Y-81252190D01*
X112745380Y-80776000D02*
X112697761Y-80752190D01*
X112626333Y-80752190D01*
X112554904Y-80776000D01*
X112507285Y-80823619D01*
X112483476Y-80871238D01*
X112459666Y-80966476D01*
X112459666Y-81037904D01*
X112483476Y-81133142D01*
X112507285Y-81180761D01*
X112554904Y-81228380D01*
X112626333Y-81252190D01*
X112673952Y-81252190D01*
X112745380Y-81228380D01*
X112769190Y-81204571D01*
X112769190Y-81037904D01*
X112673952Y-81037904D01*
X112983476Y-81252190D02*
X112983476Y-80752190D01*
X113269190Y-81252190D01*
X113269190Y-80752190D01*
X113507285Y-81252190D02*
X113507285Y-80752190D01*
X113626333Y-80752190D01*
X113697761Y-80776000D01*
X113745380Y-80823619D01*
X113769190Y-80871238D01*
X113793000Y-80966476D01*
X113793000Y-81037904D01*
X113769190Y-81133142D01*
X113745380Y-81180761D01*
X113697761Y-81228380D01*
X113626333Y-81252190D01*
X113507285Y-81252190D01*
X115126333Y-81228380D02*
X115197761Y-81252190D01*
X115316809Y-81252190D01*
X115364428Y-81228380D01*
X115388238Y-81204571D01*
X115412047Y-81156952D01*
X115412047Y-81109333D01*
X115388238Y-81061714D01*
X115364428Y-81037904D01*
X115316809Y-81014095D01*
X115221571Y-80990285D01*
X115173952Y-80966476D01*
X115150142Y-80942666D01*
X115126333Y-80895047D01*
X115126333Y-80847428D01*
X115150142Y-80799809D01*
X115173952Y-80776000D01*
X115221571Y-80752190D01*
X115340619Y-80752190D01*
X115412047Y-80776000D01*
X115912047Y-81204571D02*
X115888238Y-81228380D01*
X115816809Y-81252190D01*
X115769190Y-81252190D01*
X115697761Y-81228380D01*
X115650142Y-81180761D01*
X115626333Y-81133142D01*
X115602523Y-81037904D01*
X115602523Y-80966476D01*
X115626333Y-80871238D01*
X115650142Y-80823619D01*
X115697761Y-80776000D01*
X115769190Y-80752190D01*
X115816809Y-80752190D01*
X115888238Y-80776000D01*
X115912047Y-80799809D01*
X116364428Y-81252190D02*
X116126333Y-81252190D01*
X116126333Y-80752190D01*
X117650142Y-81228380D02*
X117721571Y-81252190D01*
X117840619Y-81252190D01*
X117888238Y-81228380D01*
X117912047Y-81204571D01*
X117935857Y-81156952D01*
X117935857Y-81109333D01*
X117912047Y-81061714D01*
X117888238Y-81037904D01*
X117840619Y-81014095D01*
X117745380Y-80990285D01*
X117697761Y-80966476D01*
X117673952Y-80942666D01*
X117650142Y-80895047D01*
X117650142Y-80847428D01*
X117673952Y-80799809D01*
X117697761Y-80776000D01*
X117745380Y-80752190D01*
X117864428Y-80752190D01*
X117935857Y-80776000D01*
X118150142Y-81252190D02*
X118150142Y-80752190D01*
X118269190Y-80752190D01*
X118340619Y-80776000D01*
X118388238Y-80823619D01*
X118412047Y-80871238D01*
X118435857Y-80966476D01*
X118435857Y-81037904D01*
X118412047Y-81133142D01*
X118388238Y-81180761D01*
X118340619Y-81228380D01*
X118269190Y-81252190D01*
X118150142Y-81252190D01*
X118626333Y-81109333D02*
X118864428Y-81109333D01*
X118578714Y-81252190D02*
X118745380Y-80752190D01*
X118912047Y-81252190D01*
X120197761Y-81109333D02*
X120435857Y-81109333D01*
X120150142Y-81252190D02*
X120316809Y-80752190D01*
X120483476Y-81252190D01*
X120745380Y-80752190D02*
X120793000Y-80752190D01*
X120840619Y-80776000D01*
X120864428Y-80799809D01*
X120888238Y-80847428D01*
X120912047Y-80942666D01*
X120912047Y-81061714D01*
X120888238Y-81156952D01*
X120864428Y-81204571D01*
X120840619Y-81228380D01*
X120793000Y-81252190D01*
X120745380Y-81252190D01*
X120697761Y-81228380D01*
X120673952Y-81204571D01*
X120650142Y-81156952D01*
X120626333Y-81061714D01*
X120626333Y-80942666D01*
X120650142Y-80847428D01*
X120673952Y-80799809D01*
X120697761Y-80776000D01*
X120745380Y-80752190D01*
X117567428Y-74022000D02*
X117853142Y-74022000D01*
X117510285Y-74193428D02*
X117710285Y-73593428D01*
X117910285Y-74193428D01*
X118110285Y-74193428D02*
X118110285Y-73593428D01*
X118253142Y-73593428D01*
X118338857Y-73622000D01*
X118396000Y-73679142D01*
X118424571Y-73736285D01*
X118453142Y-73850571D01*
X118453142Y-73936285D01*
X118424571Y-74050571D01*
X118396000Y-74107714D01*
X118338857Y-74164857D01*
X118253142Y-74193428D01*
X118110285Y-74193428D01*
X118996000Y-73593428D02*
X118710285Y-73593428D01*
X118681714Y-73879142D01*
X118710285Y-73850571D01*
X118767428Y-73822000D01*
X118910285Y-73822000D01*
X118967428Y-73850571D01*
X118996000Y-73879142D01*
X119024571Y-73936285D01*
X119024571Y-74079142D01*
X118996000Y-74136285D01*
X118967428Y-74164857D01*
X118910285Y-74193428D01*
X118767428Y-74193428D01*
X118710285Y-74164857D01*
X118681714Y-74136285D01*
X119253142Y-73650571D02*
X119281714Y-73622000D01*
X119338857Y-73593428D01*
X119481714Y-73593428D01*
X119538857Y-73622000D01*
X119567428Y-73650571D01*
X119596000Y-73707714D01*
X119596000Y-73764857D01*
X119567428Y-73850571D01*
X119224571Y-74193428D01*
X119596000Y-74193428D01*
X120110285Y-73793428D02*
X120110285Y-74193428D01*
X119967428Y-73564857D02*
X119824571Y-73993428D01*
X120196000Y-73993428D01*
X120710285Y-73593428D02*
X120424571Y-73593428D01*
X120396000Y-73879142D01*
X120424571Y-73850571D01*
X120481714Y-73822000D01*
X120624571Y-73822000D01*
X120681714Y-73850571D01*
X120710285Y-73879142D01*
X120738857Y-73936285D01*
X120738857Y-74079142D01*
X120710285Y-74136285D01*
X120681714Y-74164857D01*
X120624571Y-74193428D01*
X120481714Y-74193428D01*
X120424571Y-74164857D01*
X120396000Y-74136285D01*
X120996000Y-73964857D02*
X121453142Y-73964857D01*
X122053142Y-74193428D02*
X121710285Y-74193428D01*
X121881714Y-74193428D02*
X121881714Y-73593428D01*
X121824571Y-73679142D01*
X121767428Y-73736285D01*
X121710285Y-73764857D01*
X122424571Y-73593428D02*
X122481714Y-73593428D01*
X122538857Y-73622000D01*
X122567428Y-73650571D01*
X122596000Y-73707714D01*
X122624571Y-73822000D01*
X122624571Y-73964857D01*
X122596000Y-74079142D01*
X122567428Y-74136285D01*
X122538857Y-74164857D01*
X122481714Y-74193428D01*
X122424571Y-74193428D01*
X122367428Y-74164857D01*
X122338857Y-74136285D01*
X122310285Y-74079142D01*
X122281714Y-73964857D01*
X122281714Y-73822000D01*
X122310285Y-73707714D01*
X122338857Y-73650571D01*
X122367428Y-73622000D01*
X122424571Y-73593428D01*
X122881714Y-74193428D02*
X122881714Y-73593428D01*
X123224571Y-74193428D02*
X122967428Y-73850571D01*
X123224571Y-73593428D02*
X122881714Y-73936285D01*
X118438857Y-75193428D02*
X118438857Y-74593428D01*
X118581714Y-74593428D01*
X118667428Y-74622000D01*
X118724571Y-74679142D01*
X118753142Y-74736285D01*
X118781714Y-74850571D01*
X118781714Y-74936285D01*
X118753142Y-75050571D01*
X118724571Y-75107714D01*
X118667428Y-75164857D01*
X118581714Y-75193428D01*
X118438857Y-75193428D01*
X119038857Y-75193428D02*
X119038857Y-74593428D01*
X119638857Y-74622000D02*
X119581714Y-74593428D01*
X119496000Y-74593428D01*
X119410285Y-74622000D01*
X119353142Y-74679142D01*
X119324571Y-74736285D01*
X119296000Y-74850571D01*
X119296000Y-74936285D01*
X119324571Y-75050571D01*
X119353142Y-75107714D01*
X119410285Y-75164857D01*
X119496000Y-75193428D01*
X119553142Y-75193428D01*
X119638857Y-75164857D01*
X119667428Y-75136285D01*
X119667428Y-74936285D01*
X119553142Y-74936285D01*
X119924571Y-75193428D02*
X119924571Y-74593428D01*
X120210285Y-74964857D02*
X120667428Y-74964857D01*
X120953142Y-75193428D02*
X120953142Y-74593428D01*
X121181714Y-74593428D01*
X121238857Y-74622000D01*
X121267428Y-74650571D01*
X121296000Y-74707714D01*
X121296000Y-74793428D01*
X121267428Y-74850571D01*
X121238857Y-74879142D01*
X121181714Y-74907714D01*
X120953142Y-74907714D01*
X121667428Y-74593428D02*
X121781714Y-74593428D01*
X121838857Y-74622000D01*
X121896000Y-74679142D01*
X121924571Y-74793428D01*
X121924571Y-74993428D01*
X121896000Y-75107714D01*
X121838857Y-75164857D01*
X121781714Y-75193428D01*
X121667428Y-75193428D01*
X121610285Y-75164857D01*
X121553142Y-75107714D01*
X121524571Y-74993428D01*
X121524571Y-74793428D01*
X121553142Y-74679142D01*
X121610285Y-74622000D01*
X121667428Y-74593428D01*
X122096000Y-74593428D02*
X122438857Y-74593428D01*
X122267428Y-75193428D02*
X122267428Y-74593428D01*
D11*
X114981000Y-79176450D02*
X114981000Y-78176450D01*
X113281000Y-78176450D02*
X113281000Y-79176450D01*
X110523000Y-78176450D02*
X110523000Y-79176450D01*
X112223000Y-79176450D02*
X112223000Y-78176450D01*
X117799000Y-78276450D02*
X117799000Y-79476450D01*
X116039000Y-79476450D02*
X116039000Y-78276450D01*
X109465000Y-78276450D02*
X109465000Y-79476450D01*
X107705000Y-79476450D02*
X107705000Y-78276450D01*
X111655000Y-75630000D02*
X108855000Y-75630000D01*
X111655000Y-74230000D02*
X108855000Y-74230000D01*
X111655000Y-75630000D02*
X111655000Y-74230000D01*
X118857000Y-79476450D02*
X118857000Y-78276450D01*
X120617000Y-78276450D02*
X120617000Y-79476450D01*
X121675000Y-79476450D02*
X121675000Y-78276450D01*
X123435000Y-78276450D02*
X123435000Y-79476450D01*
X116470000Y-72685000D02*
X114020000Y-72685000D01*
X114670000Y-75905000D02*
X116470000Y-75905000D01*
D12*
X113515857Y-76488952D02*
X113553952Y-76488952D01*
X113592047Y-76508000D01*
X113611095Y-76527047D01*
X113630142Y-76565142D01*
X113649190Y-76641333D01*
X113649190Y-76736571D01*
X113630142Y-76812761D01*
X113611095Y-76850857D01*
X113592047Y-76869904D01*
X113553952Y-76888952D01*
X113515857Y-76888952D01*
X113477761Y-76869904D01*
X113458714Y-76850857D01*
X113439666Y-76812761D01*
X113420619Y-76736571D01*
X113420619Y-76641333D01*
X113439666Y-76565142D01*
X113458714Y-76527047D01*
X113477761Y-76508000D01*
X113515857Y-76488952D01*
X113820619Y-76850857D02*
X113839666Y-76869904D01*
X113820619Y-76888952D01*
X113801571Y-76869904D01*
X113820619Y-76850857D01*
X113820619Y-76888952D01*
X114220619Y-76888952D02*
X113992047Y-76888952D01*
X114106333Y-76888952D02*
X114106333Y-76488952D01*
X114068238Y-76546095D01*
X114030142Y-76584190D01*
X113992047Y-76603238D01*
X114563476Y-76622285D02*
X114563476Y-76888952D01*
X114392047Y-76622285D02*
X114392047Y-76831809D01*
X114411095Y-76869904D01*
X114449190Y-76888952D01*
X114506333Y-76888952D01*
X114544428Y-76869904D01*
X114563476Y-76850857D01*
X114887285Y-76679428D02*
X114753952Y-76679428D01*
X114753952Y-76888952D02*
X114753952Y-76488952D01*
X114944428Y-76488952D01*
X111077428Y-76888952D02*
X110848857Y-76888952D01*
X110963142Y-76888952D02*
X110963142Y-76488952D01*
X110925047Y-76546095D01*
X110886952Y-76584190D01*
X110848857Y-76603238D01*
X111325047Y-76488952D02*
X111363142Y-76488952D01*
X111401238Y-76508000D01*
X111420285Y-76527047D01*
X111439333Y-76565142D01*
X111458380Y-76641333D01*
X111458380Y-76736571D01*
X111439333Y-76812761D01*
X111420285Y-76850857D01*
X111401238Y-76869904D01*
X111363142Y-76888952D01*
X111325047Y-76888952D01*
X111286952Y-76869904D01*
X111267904Y-76850857D01*
X111248857Y-76812761D01*
X111229809Y-76736571D01*
X111229809Y-76641333D01*
X111248857Y-76565142D01*
X111267904Y-76527047D01*
X111286952Y-76508000D01*
X111325047Y-76488952D01*
X111801238Y-76622285D02*
X111801238Y-76888952D01*
X111629809Y-76622285D02*
X111629809Y-76831809D01*
X111648857Y-76869904D01*
X111686952Y-76888952D01*
X111744095Y-76888952D01*
X111782190Y-76869904D01*
X111801238Y-76850857D01*
X112125047Y-76679428D02*
X111991714Y-76679428D01*
X111991714Y-76888952D02*
X111991714Y-76488952D01*
X112182190Y-76488952D01*
X116690809Y-77269952D02*
X116462238Y-77269952D01*
X116576523Y-77269952D02*
X116576523Y-76869952D01*
X116538428Y-76927095D01*
X116500333Y-76965190D01*
X116462238Y-76984238D01*
X116938428Y-76869952D02*
X116976523Y-76869952D01*
X117014619Y-76889000D01*
X117033666Y-76908047D01*
X117052714Y-76946142D01*
X117071761Y-77022333D01*
X117071761Y-77117571D01*
X117052714Y-77193761D01*
X117033666Y-77231857D01*
X117014619Y-77250904D01*
X116976523Y-77269952D01*
X116938428Y-77269952D01*
X116900333Y-77250904D01*
X116881285Y-77231857D01*
X116862238Y-77193761D01*
X116843190Y-77117571D01*
X116843190Y-77022333D01*
X116862238Y-76946142D01*
X116881285Y-76908047D01*
X116900333Y-76889000D01*
X116938428Y-76869952D01*
X117243190Y-77269952D02*
X117243190Y-76869952D01*
X117471761Y-77269952D02*
X117300333Y-77041380D01*
X117471761Y-76869952D02*
X117243190Y-77098523D01*
X108499285Y-77269952D02*
X108270714Y-77269952D01*
X108385000Y-77269952D02*
X108385000Y-76869952D01*
X108346904Y-76927095D01*
X108308809Y-76965190D01*
X108270714Y-76984238D01*
X108670714Y-77269952D02*
X108670714Y-76869952D01*
X108899285Y-77269952D02*
X108727857Y-77041380D01*
X108899285Y-76869952D02*
X108670714Y-77098523D01*
X109321666Y-73967952D02*
X109321666Y-73567952D01*
X109474047Y-73567952D01*
X109512142Y-73587000D01*
X109531190Y-73606047D01*
X109550238Y-73644142D01*
X109550238Y-73701285D01*
X109531190Y-73739380D01*
X109512142Y-73758428D01*
X109474047Y-73777476D01*
X109321666Y-73777476D01*
X109683571Y-73567952D02*
X109778809Y-73967952D01*
X109855000Y-73682238D01*
X109931190Y-73967952D01*
X110026428Y-73567952D01*
X110407380Y-73967952D02*
X110274047Y-73777476D01*
X110178809Y-73967952D02*
X110178809Y-73567952D01*
X110331190Y-73567952D01*
X110369285Y-73587000D01*
X110388333Y-73606047D01*
X110407380Y-73644142D01*
X110407380Y-73701285D01*
X110388333Y-73739380D01*
X110369285Y-73758428D01*
X110331190Y-73777476D01*
X110178809Y-73777476D01*
X119484809Y-77269952D02*
X119256238Y-77269952D01*
X119370523Y-77269952D02*
X119370523Y-76869952D01*
X119332428Y-76927095D01*
X119294333Y-76965190D01*
X119256238Y-76984238D01*
X119732428Y-76869952D02*
X119770523Y-76869952D01*
X119808619Y-76889000D01*
X119827666Y-76908047D01*
X119846714Y-76946142D01*
X119865761Y-77022333D01*
X119865761Y-77117571D01*
X119846714Y-77193761D01*
X119827666Y-77231857D01*
X119808619Y-77250904D01*
X119770523Y-77269952D01*
X119732428Y-77269952D01*
X119694333Y-77250904D01*
X119675285Y-77231857D01*
X119656238Y-77193761D01*
X119637190Y-77117571D01*
X119637190Y-77022333D01*
X119656238Y-76946142D01*
X119675285Y-76908047D01*
X119694333Y-76889000D01*
X119732428Y-76869952D01*
X120037190Y-77269952D02*
X120037190Y-76869952D01*
X120265761Y-77269952D02*
X120094333Y-77041380D01*
X120265761Y-76869952D02*
X120037190Y-77098523D01*
X122278809Y-77269952D02*
X122050238Y-77269952D01*
X122164523Y-77269952D02*
X122164523Y-76869952D01*
X122126428Y-76927095D01*
X122088333Y-76965190D01*
X122050238Y-76984238D01*
X122526428Y-76869952D02*
X122564523Y-76869952D01*
X122602619Y-76889000D01*
X122621666Y-76908047D01*
X122640714Y-76946142D01*
X122659761Y-77022333D01*
X122659761Y-77117571D01*
X122640714Y-77193761D01*
X122621666Y-77231857D01*
X122602619Y-77250904D01*
X122564523Y-77269952D01*
X122526428Y-77269952D01*
X122488333Y-77250904D01*
X122469285Y-77231857D01*
X122450238Y-77193761D01*
X122431190Y-77117571D01*
X122431190Y-77022333D01*
X122450238Y-76946142D01*
X122469285Y-76908047D01*
X122488333Y-76889000D01*
X122526428Y-76869952D01*
X122831190Y-77269952D02*
X122831190Y-76869952D01*
X123059761Y-77269952D02*
X122888333Y-77041380D01*
X123059761Y-76869952D02*
X122831190Y-77098523D01*
X114512857Y-72329666D02*
X114703333Y-72329666D01*
X114474761Y-72443952D02*
X114608095Y-72043952D01*
X114741428Y-72443952D01*
X114874761Y-72443952D02*
X114874761Y-72043952D01*
X114970000Y-72043952D01*
X115027142Y-72063000D01*
X115065238Y-72101095D01*
X115084285Y-72139190D01*
X115103333Y-72215380D01*
X115103333Y-72272523D01*
X115084285Y-72348714D01*
X115065238Y-72386809D01*
X115027142Y-72424904D01*
X114970000Y-72443952D01*
X114874761Y-72443952D01*
X115465238Y-72043952D02*
X115274761Y-72043952D01*
X115255714Y-72234428D01*
X115274761Y-72215380D01*
X115312857Y-72196333D01*
X115408095Y-72196333D01*
X115446190Y-72215380D01*
X115465238Y-72234428D01*
X115484285Y-72272523D01*
X115484285Y-72367761D01*
X115465238Y-72405857D01*
X115446190Y-72424904D01*
X115408095Y-72443952D01*
X115312857Y-72443952D01*
X115274761Y-72424904D01*
X115255714Y-72405857D01*
X115636666Y-72082047D02*
X115655714Y-72063000D01*
X115693809Y-72043952D01*
X115789047Y-72043952D01*
X115827142Y-72063000D01*
X115846190Y-72082047D01*
X115865238Y-72120142D01*
X115865238Y-72158238D01*
X115846190Y-72215380D01*
X115617619Y-72443952D01*
X115865238Y-72443952D01*
X116208095Y-72177285D02*
X116208095Y-72443952D01*
X116112857Y-72024904D02*
X116017619Y-72310619D01*
X116265238Y-72310619D01*
X116608095Y-72043952D02*
X116417619Y-72043952D01*
X116398571Y-72234428D01*
X116417619Y-72215380D01*
X116455714Y-72196333D01*
X116550952Y-72196333D01*
X116589047Y-72215380D01*
X116608095Y-72234428D01*
X116627142Y-72272523D01*
X116627142Y-72367761D01*
X116608095Y-72405857D01*
X116589047Y-72424904D01*
X116550952Y-72443952D01*
X116455714Y-72443952D01*
X116417619Y-72424904D01*
X116398571Y-72405857D01*
M02*
